<svg xmlns="http://www.w3.org/2000/svg" xmlns:xlink="http://www.w3.org/1999/xlink" width="500" zoomAndPan="magnify" viewBox="0 0 375 374.999991" height="500" preserveAspectRatio="xMidYMid meet" version="1.0"><defs><g/><clipPath id="8c33cd4057"><path d="M 21.945312 65.636719 L 148 65.636719 L 148 201.386719 L 21.945312 201.386719 Z M 21.945312 65.636719 " clip-rule="nonzero"/></clipPath><clipPath id="e253fea515"><path d="M 105 78 L 168 78 L 168 201.386719 L 105 201.386719 Z M 105 78 " clip-rule="nonzero"/></clipPath></defs><rect x="-37.5" width="450" fill="#ffffff" y="-37.499999" height="449.999989" fill-opacity="1"/><rect x="-37.5" width="450" fill="#7ed957" y="-37.499999" height="449.999989" fill-opacity="1"/><g clip-path="url(#8c33cd4057)"><path fill="#000000" d="M 52.238281 65.660156 C 52.238281 65.660156 98.644531 85.792969 99.941406 148.792969 C 100.585938 188.707031 128.71875 198.828125 147.433594 201.691406 C 130.855469 201.261719 56.042969 198.003906 21.945312 132.558594 C 21.945312 132.558594 55.117188 130.546875 72.300781 144.140625 C 69.609375 139.226562 46.929688 106.460938 52.238281 65.660156 Z M 52.238281 65.660156 " fill-opacity="1" fill-rule="nonzero"/></g><g clip-path="url(#e253fea515)"><path fill="#000000" d="M 158.867188 195.421875 C 156.558594 194.792969 154.101562 193.484375 151.804688 191.003906 C 148.84375 187.621094 147.816406 183.941406 148.816406 180.828125 C 149.816406 177.730469 152.449219 177.078125 153.992188 176.273438 C 155.535156 175.472656 157.484375 174.164062 157.484375 174.164062 C 162.902344 170.917969 160.421875 168.398438 159.570312 167.535156 C 158.730469 166.65625 155.226562 163.421875 155.226562 163.421875 C 155.226562 163.421875 155.300781 163.273438 156.027344 161.976562 C 157.066406 159.558594 155.113281 159.570312 153.324219 159.59375 C 151.546875 159.632812 152.078125 158.84375 153.460938 157.449219 C 155.089844 155.433594 152.902344 155.421875 151.050781 155.066406 C 149.214844 154.707031 149.695312 152.769531 149.695312 152.769531 C 149.695312 152.769531 150.125 151.199219 150.816406 149.359375 C 151.375 147.71875 149.683594 147.496094 149.683594 147.496094 C 149.683594 147.496094 144.667969 146.757812 142.558594 146.496094 C 140.449219 146.238281 139.214844 144.324219 134.449219 139.632812 C 126.671875 132.507812 111.226562 132.941406 111.226562 132.941406 C 111.226562 132.941406 125.609375 138.003906 130.878906 150.050781 C 136.152344 162.113281 133.484375 177.261719 140.398438 192.1875 C 142.226562 196.125 144.449219 199.507812 147.359375 201.707031 C 113.730469 193.359375 82.277344 160.285156 128.792969 78.644531 C 128.816406 78.632812 190.359375 131.410156 158.867188 195.421875 Z M 158.867188 195.421875 " fill-opacity="1" fill-rule="nonzero"/></g><g fill="#ffffff" fill-opacity="1"><g transform="translate(168.484887, 129.023773)"><g><path d="M 25.359375 -40.578125 C 25.859375 -40.578125 26.269531 -40.4375 26.59375 -40.15625 C 26.914062 -39.882812 27.078125 -39.5 27.078125 -39 C 27.078125 -38.300781 26.820312 -37.664062 26.3125 -37.09375 C 25.800781 -36.519531 25.160156 -36.007812 24.390625 -35.5625 C 23.628906 -35.113281 22.800781 -34.726562 21.90625 -34.40625 C 21.019531 -34.082031 20.191406 -33.832031 19.421875 -33.65625 C 18.972656 -32.519531 18.613281 -31.191406 18.34375 -29.671875 C 18.070312 -28.148438 17.9375 -26.359375 17.9375 -24.296875 C 17.9375 -22.972656 17.953125 -21.585938 17.984375 -20.140625 C 18.023438 -18.691406 18.0625 -17.207031 18.09375 -15.6875 C 19.101562 -15.289062 20.023438 -14.800781 20.859375 -14.21875 C 21.703125 -13.632812 22.5 -12.96875 23.25 -12.21875 C 25.0625 -12.632812 26.6875 -13.257812 28.125 -14.09375 C 29.570312 -14.9375 30.835938 -15.945312 31.921875 -17.125 C 33.003906 -18.3125 33.910156 -19.628906 34.640625 -21.078125 C 35.378906 -22.523438 35.953125 -24.054688 36.359375 -25.671875 C 36.878906 -27.785156 37.476562 -29.613281 38.15625 -31.15625 C 38.84375 -32.695312 39.554688 -34.007812 40.296875 -35.09375 C 41.035156 -36.1875 41.789062 -37.082031 42.5625 -37.78125 C 43.332031 -38.476562 44.0625 -39.035156 44.75 -39.453125 C 45.4375 -39.878906 46.066406 -40.1875 46.640625 -40.375 C 47.210938 -40.5625 47.671875 -40.691406 48.015625 -40.765625 L 48.34375 -40.046875 C 47.019531 -39.722656 45.878906 -39.09375 44.921875 -38.15625 C 43.960938 -37.226562 43.132812 -36.117188 42.4375 -34.828125 C 41.75 -33.535156 41.175781 -32.132812 40.71875 -30.625 C 40.269531 -29.113281 39.882812 -27.632812 39.5625 -26.1875 C 38.96875 -23.601562 38.15625 -21.410156 37.125 -19.609375 C 36.09375 -17.816406 34.914062 -16.320312 33.59375 -15.125 C 32.269531 -13.9375 30.828125 -13.007812 29.265625 -12.34375 C 27.710938 -11.6875 26.09375 -11.222656 24.40625 -10.953125 C 25.46875 -9.722656 26.453125 -8.382812 27.359375 -6.9375 C 28.273438 -5.5 29.15625 -4.054688 30 -2.609375 C 30.84375 -1.171875 31.679688 0.21875 32.515625 1.5625 C 33.359375 2.90625 34.242188 4.085938 35.171875 5.109375 C 36.109375 6.140625 37.109375 6.960938 38.171875 7.578125 C 39.234375 8.203125 40.421875 8.515625 41.734375 8.515625 C 42.140625 8.515625 42.566406 8.484375 43.015625 8.421875 C 43.460938 8.359375 43.941406 8.242188 44.453125 8.078125 L 44.765625 8.859375 C 44.742188 8.878906 44.597656 8.957031 44.328125 9.09375 C 44.066406 9.226562 43.707031 9.375 43.25 9.53125 C 42.789062 9.695312 42.253906 9.84375 41.640625 9.96875 C 41.035156 10.101562 40.378906 10.171875 39.671875 10.171875 C 37.835938 10.171875 36.257812 9.800781 34.9375 9.0625 C 33.613281 8.320312 32.457031 7.335938 31.46875 6.109375 C 30.488281 4.878906 29.617188 3.472656 28.859375 1.890625 C 28.097656 0.304688 27.367188 -1.332031 26.671875 -3.03125 C 25.984375 -4.625 25.304688 -6.054688 24.640625 -7.328125 C 23.972656 -8.597656 23.257812 -9.726562 22.5 -10.71875 C 22 -10.664062 21.503906 -10.632812 21.015625 -10.625 C 20.523438 -10.613281 20.03125 -10.609375 19.53125 -10.609375 L 18.203125 -10.609375 L 18.203125 -10.28125 C 18.203125 -8.675781 18.128906 -7.113281 17.984375 -5.59375 C 17.847656 -4.082031 17.601562 -2.664062 17.25 -1.34375 C 16.90625 -0.0195312 16.425781 1.191406 15.8125 2.296875 C 15.207031 3.410156 14.441406 4.363281 13.515625 5.15625 C 12.597656 5.945312 11.5 6.5625 10.21875 7 C 8.9375 7.4375 7.4375 7.65625 5.71875 7.65625 C 4.269531 7.65625 2.867188 7.4375 1.515625 7 C 0.160156 6.5625 -1.078125 5.894531 -2.203125 5 L -1.53125 4.1875 C -0.539062 4.988281 0.570312 5.59375 1.8125 6 C 3.050781 6.40625 4.316406 6.609375 5.609375 6.609375 C 7.078125 6.609375 8.332031 6.363281 9.375 5.875 C 10.414062 5.394531 11.28125 4.75 11.96875 3.9375 C 12.65625 3.125 13.203125 2.175781 13.609375 1.09375 C 14.023438 0.0195312 14.332031 -1.109375 14.53125 -2.296875 C 14.738281 -3.484375 14.867188 -4.691406 14.921875 -5.921875 C 14.984375 -7.160156 15.015625 -8.335938 15.015625 -9.453125 L 15.015625 -10.90625 C 13.847656 -11.082031 12.921875 -11.320312 12.234375 -11.625 C 11.546875 -11.925781 11.019531 -12.238281 10.65625 -12.5625 C 10.300781 -12.882812 10.066406 -13.191406 9.953125 -13.484375 C 9.847656 -13.785156 9.796875 -14.035156 9.796875 -14.234375 C 9.796875 -14.640625 9.890625 -14.992188 10.078125 -15.296875 C 10.265625 -15.609375 10.515625 -15.859375 10.828125 -16.046875 C 11.148438 -16.234375 11.523438 -16.367188 11.953125 -16.453125 C 12.378906 -16.546875 12.835938 -16.59375 13.328125 -16.59375 C 13.585938 -16.59375 13.859375 -16.582031 14.140625 -16.5625 C 14.421875 -16.550781 14.691406 -16.523438 14.953125 -16.484375 L 14.953125 -17.9375 C 14.953125 -21.445312 15.210938 -24.460938 15.734375 -26.984375 C 16.253906 -29.515625 16.910156 -31.628906 17.703125 -33.328125 C 16.429688 -33.179688 15.175781 -33.09375 13.9375 -33.0625 C 12.695312 -33.039062 11.476562 -32.929688 10.28125 -32.734375 C 9.082031 -32.535156 7.910156 -32.191406 6.765625 -31.703125 C 5.617188 -31.210938 4.519531 -30.4375 3.46875 -29.375 L 2.625 -30.03125 C 3.664062 -31.101562 4.726562 -31.914062 5.8125 -32.46875 C 6.894531 -33.019531 8.007812 -33.414062 9.15625 -33.65625 C 10.300781 -33.90625 11.488281 -34.054688 12.71875 -34.109375 C 13.945312 -34.160156 15.238281 -34.234375 16.59375 -34.328125 C 16.84375 -34.328125 17.109375 -34.34375 17.390625 -34.375 C 17.671875 -34.40625 17.960938 -34.441406 18.265625 -34.484375 C 18.910156 -35.679688 19.582031 -36.671875 20.28125 -37.453125 C 20.988281 -38.242188 21.671875 -38.875 22.328125 -39.34375 C 22.984375 -39.8125 23.578125 -40.132812 24.109375 -40.3125 C 24.648438 -40.488281 25.066406 -40.578125 25.359375 -40.578125 Z M 25.359375 -39.5625 C 25.160156 -39.5625 24.859375 -39.492188 24.453125 -39.359375 C 24.046875 -39.222656 23.585938 -38.976562 23.078125 -38.625 C 22.566406 -38.28125 22.035156 -37.796875 21.484375 -37.171875 C 20.941406 -36.554688 20.429688 -35.769531 19.953125 -34.8125 C 20.703125 -35 21.4375 -35.226562 22.15625 -35.5 C 22.882812 -35.769531 23.535156 -36.078125 24.109375 -36.421875 C 24.679688 -36.773438 25.140625 -37.160156 25.484375 -37.578125 C 25.835938 -38.003906 26.015625 -38.457031 26.015625 -38.9375 C 26.015625 -39.082031 25.96875 -39.222656 25.875 -39.359375 C 25.78125 -39.492188 25.609375 -39.5625 25.359375 -39.5625 Z M 13.265625 -15.578125 C 12.347656 -15.578125 11.722656 -15.4375 11.390625 -15.15625 C 11.066406 -14.882812 10.90625 -14.59375 10.90625 -14.28125 C 10.90625 -13.820312 11.265625 -13.367188 11.984375 -12.921875 C 12.710938 -12.484375 13.722656 -12.148438 15.015625 -11.921875 C 15.015625 -12.535156 15.003906 -13.128906 14.984375 -13.703125 C 14.960938 -14.285156 14.953125 -14.863281 14.953125 -15.4375 C 14.691406 -15.476562 14.410156 -15.507812 14.109375 -15.53125 C 13.816406 -15.5625 13.535156 -15.578125 13.265625 -15.578125 Z M 21.515625 -11.875 C 20.992188 -12.425781 20.453125 -12.921875 19.890625 -13.359375 C 19.335938 -13.796875 18.757812 -14.164062 18.15625 -14.46875 C 18.15625 -14.007812 18.160156 -13.539062 18.171875 -13.0625 C 18.191406 -12.59375 18.203125 -12.125 18.203125 -11.65625 L 18.265625 -11.65625 C 18.835938 -11.65625 19.390625 -11.664062 19.921875 -11.6875 C 20.460938 -11.71875 20.992188 -11.78125 21.515625 -11.875 Z M 21.515625 -11.875 "/></g></g></g><g fill="#ffffff" fill-opacity="1"><g transform="translate(211.316321, 129.023773)"><g><path d="M 12.8125 -6.203125 C 12.257812 -5.203125 11.722656 -4.367188 11.203125 -3.703125 C 10.679688 -3.046875 10.164062 -2.519531 9.65625 -2.125 C 9.144531 -1.726562 8.628906 -1.445312 8.109375 -1.28125 C 7.585938 -1.125 7.050781 -1.046875 6.5 -1.046875 C 6.050781 -1.046875 5.539062 -1.117188 4.96875 -1.265625 C 4.394531 -1.410156 3.851562 -1.707031 3.34375 -2.15625 C 2.832031 -2.613281 2.398438 -3.269531 2.046875 -4.125 C 1.703125 -4.988281 1.53125 -6.144531 1.53125 -7.59375 C 1.53125 -9.050781 1.695312 -10.414062 2.03125 -11.6875 C 2.375 -12.96875 2.753906 -14.09375 3.171875 -15.0625 C 3.648438 -16.175781 4.203125 -17.207031 4.828125 -18.15625 L 5.828125 -17.828125 C 5.804688 -17.816406 5.742188 -17.65625 5.640625 -17.34375 C 5.546875 -17.039062 5.421875 -16.628906 5.265625 -16.109375 C 5.117188 -15.585938 4.957031 -14.988281 4.78125 -14.3125 C 4.613281 -13.632812 4.453125 -12.914062 4.296875 -12.15625 C 4.148438 -11.394531 4.023438 -10.617188 3.921875 -9.828125 C 3.828125 -9.035156 3.78125 -8.273438 3.78125 -7.546875 C 3.78125 -5.859375 4.082031 -4.523438 4.6875 -3.546875 C 5.289062 -2.578125 6.070312 -2.09375 7.03125 -2.09375 C 8.101562 -2.09375 9.140625 -2.710938 10.140625 -3.953125 C 11.148438 -5.203125 12.113281 -6.945312 13.03125 -9.1875 C 13.1875 -10.226562 13.398438 -11.191406 13.671875 -12.078125 C 13.953125 -12.972656 14.234375 -13.769531 14.515625 -14.46875 C 14.796875 -15.164062 15.050781 -15.75 15.28125 -16.21875 C 15.507812 -16.6875 15.679688 -17 15.796875 -17.15625 L 16.734375 -16.953125 C 16.441406 -15.609375 16.191406 -14.398438 15.984375 -13.328125 C 15.785156 -12.265625 15.625 -11.300781 15.5 -10.4375 C 15.375 -9.582031 15.28125 -8.816406 15.21875 -8.140625 C 15.15625 -7.472656 15.125 -6.875 15.125 -6.34375 C 15.125 -5.269531 15.289062 -4.410156 15.625 -3.765625 C 15.96875 -3.117188 16.5 -2.796875 17.21875 -2.796875 C 17.695312 -2.796875 18.160156 -2.972656 18.609375 -3.328125 C 19.054688 -3.691406 19.519531 -4.285156 20 -5.109375 C 20.488281 -5.929688 21 -6.992188 21.53125 -8.296875 C 22.070312 -9.609375 22.679688 -11.21875 23.359375 -13.125 L 24.40625 -12.859375 C 24.101562 -12.109375 23.800781 -11.300781 23.5 -10.4375 C 23.195312 -9.582031 22.867188 -8.722656 22.515625 -7.859375 C 22.171875 -7.003906 21.804688 -6.179688 21.421875 -5.390625 C 21.035156 -4.609375 20.601562 -3.910156 20.125 -3.296875 C 19.65625 -2.691406 19.140625 -2.207031 18.578125 -1.84375 C 18.023438 -1.488281 17.410156 -1.3125 16.734375 -1.3125 C 16.085938 -1.3125 15.519531 -1.4375 15.03125 -1.6875 C 14.550781 -1.9375 14.144531 -2.273438 13.8125 -2.703125 C 13.488281 -3.140625 13.238281 -3.65625 13.0625 -4.25 C 12.894531 -4.851562 12.8125 -5.503906 12.8125 -6.203125 Z M 12.8125 -6.203125 "/></g></g></g><g fill="#ffffff" fill-opacity="1"><g transform="translate(232.154683, 129.023773)"><g><path d="M 2.53125 -13.125 C 2.632812 -13.488281 2.734375 -13.867188 2.828125 -14.265625 C 2.929688 -14.671875 3.035156 -15.21875 3.140625 -15.90625 C 3.179688 -16.164062 3.359375 -16.382812 3.671875 -16.5625 C 3.992188 -16.75 4.359375 -16.882812 4.765625 -16.96875 C 5.171875 -17.0625 5.566406 -17.125 5.953125 -17.15625 C 6.335938 -17.195312 6.609375 -17.21875 6.765625 -17.21875 C 7.378906 -17.21875 7.96875 -17.179688 8.53125 -17.109375 C 9.09375 -17.035156 9.675781 -17 10.28125 -17 C 10.96875 -17 11.671875 -17.109375 12.390625 -17.328125 C 13.117188 -17.554688 13.90625 -18.03125 14.75 -18.75 C 14.800781 -18.800781 14.851562 -18.832031 14.90625 -18.84375 C 14.957031 -18.851562 15.007812 -18.859375 15.0625 -18.859375 C 15.207031 -18.859375 15.335938 -18.800781 15.453125 -18.6875 C 15.566406 -18.582031 15.625 -18.476562 15.625 -18.375 C 15.625 -17.363281 15.5 -16.359375 15.25 -15.359375 C 15 -14.359375 14.671875 -13.382812 14.265625 -12.4375 C 13.867188 -11.488281 13.414062 -10.585938 12.90625 -9.734375 C 12.394531 -8.878906 11.878906 -8.097656 11.359375 -7.390625 C 10.835938 -6.691406 10.335938 -6.078125 9.859375 -5.546875 C 9.390625 -5.015625 8.984375 -4.597656 8.640625 -4.296875 C 8.835938 -4.148438 9.046875 -3.976562 9.265625 -3.78125 C 9.484375 -3.582031 9.691406 -3.332031 9.890625 -3.03125 C 10.097656 -2.726562 10.28125 -2.347656 10.4375 -1.890625 C 10.601562 -1.429688 10.734375 -0.875 10.828125 -0.21875 C 12.023438 -1.070312 13.097656 -1.960938 14.046875 -2.890625 C 14.992188 -3.828125 15.847656 -4.816406 16.609375 -5.859375 C 17.367188 -6.910156 18.054688 -8.035156 18.671875 -9.234375 C 19.296875 -10.429688 19.875 -11.726562 20.40625 -13.125 L 21.453125 -12.859375 C 20.804688 -11.210938 20.144531 -9.738281 19.46875 -8.4375 C 18.789062 -7.144531 18.039062 -5.957031 17.21875 -4.875 C 16.40625 -3.789062 15.488281 -2.78125 14.46875 -1.84375 C 13.445312 -0.90625 12.273438 0.0390625 10.953125 1 L 10.953125 1.828125 C 10.953125 4.191406 10.675781 6.25 10.125 8 C 9.570312 9.757812 8.898438 11.21875 8.109375 12.375 C 7.316406 13.539062 6.472656 14.410156 5.578125 14.984375 C 4.691406 15.554688 3.914062 15.84375 3.25 15.84375 C 2.175781 15.84375 1.335938 15.472656 0.734375 14.734375 C 0.140625 14.003906 -0.15625 13.03125 -0.15625 11.8125 C -0.15625 10.882812 0.0664062 9.953125 0.515625 9.015625 C 0.972656 8.085938 1.597656 7.175781 2.390625 6.28125 C 3.179688 5.382812 4.117188 4.507812 5.203125 3.65625 C 6.285156 2.8125 7.453125 1.992188 8.703125 1.203125 C 8.703125 1.171875 8.707031 1.15625 8.71875 1.15625 C 8.738281 1.15625 8.769531 1.132812 8.8125 1.09375 C 8.8125 0.207031 8.707031 -0.617188 8.5 -1.390625 C 8.289062 -2.160156 7.957031 -2.796875 7.5 -3.296875 C 7.132812 -3.046875 6.804688 -2.867188 6.515625 -2.765625 C 6.234375 -2.671875 5.988281 -2.625 5.78125 -2.625 C 5.332031 -2.625 5.007812 -2.734375 4.8125 -2.953125 C 4.613281 -3.171875 4.515625 -3.410156 4.515625 -3.671875 C 4.515625 -3.734375 4.523438 -3.828125 4.546875 -3.953125 C 4.578125 -4.078125 4.65625 -4.203125 4.78125 -4.328125 C 4.90625 -4.460938 5.09375 -4.578125 5.34375 -4.671875 C 5.59375 -4.773438 5.941406 -4.828125 6.390625 -4.828125 C 6.535156 -4.828125 6.679688 -4.816406 6.828125 -4.796875 C 6.984375 -4.785156 7.144531 -4.765625 7.3125 -4.734375 C 8.289062 -5.734375 9.117188 -6.804688 9.796875 -7.953125 C 10.484375 -9.109375 11.039062 -10.222656 11.46875 -11.296875 C 11.894531 -12.378906 12.207031 -13.359375 12.40625 -14.234375 C 12.601562 -15.109375 12.71875 -15.789062 12.75 -16.28125 C 12.613281 -16.1875 12.429688 -16.113281 12.203125 -16.0625 C 11.984375 -16.019531 11.75 -15.984375 11.5 -15.953125 C 11.257812 -15.929688 11.023438 -15.914062 10.796875 -15.90625 C 10.578125 -15.90625 10.40625 -15.90625 10.28125 -15.90625 C 9.945312 -15.90625 9.535156 -15.910156 9.046875 -15.921875 C 8.566406 -15.941406 8.082031 -15.953125 7.59375 -15.953125 C 7.113281 -15.953125 6.695312 -15.910156 6.34375 -15.828125 C 6 -15.742188 5.707031 -15.640625 5.46875 -15.515625 C 5.238281 -15.390625 5.054688 -15.265625 4.921875 -15.140625 C 4.796875 -15.015625 4.695312 -14.914062 4.625 -14.84375 C 4.375 -14.539062 4.175781 -14.242188 4.03125 -13.953125 C 3.882812 -13.671875 3.734375 -13.304688 3.578125 -12.859375 Z M 2.578125 14.375 C 3.179688 14.375 3.816406 14.054688 4.484375 13.421875 C 5.160156 12.796875 5.796875 11.941406 6.390625 10.859375 C 6.984375 9.773438 7.5 8.515625 7.9375 7.078125 C 8.375 5.640625 8.644531 4.101562 8.75 2.46875 C 8.644531 2.519531 8.566406 2.570312 8.515625 2.625 C 7.390625 3.363281 6.359375 4.113281 5.421875 4.875 C 4.492188 5.632812 3.691406 6.398438 3.015625 7.171875 C 2.347656 7.941406 1.828125 8.710938 1.453125 9.484375 C 1.078125 10.265625 0.890625 11.039062 0.890625 11.8125 C 0.890625 12.050781 0.914062 12.316406 0.96875 12.609375 C 1.019531 12.898438 1.113281 13.175781 1.25 13.4375 C 1.382812 13.695312 1.554688 13.914062 1.765625 14.09375 C 1.984375 14.28125 2.253906 14.375 2.578125 14.375 Z M 2.578125 14.375 "/></g></g></g><g fill="#ffffff" fill-opacity="1"><g transform="translate(250.039154, 129.023773)"><g><path d="M 23.203125 -12.859375 C 22.472656 -10.878906 21.804688 -9.21875 21.203125 -7.875 C 20.597656 -6.53125 20.015625 -5.445312 19.453125 -4.625 C 18.890625 -3.800781 18.332031 -3.207031 17.78125 -2.84375 C 17.226562 -2.488281 16.617188 -2.3125 15.953125 -2.3125 C 15.148438 -2.3125 14.460938 -2.59375 13.890625 -3.15625 C 13.316406 -3.71875 12.957031 -4.59375 12.8125 -5.78125 C 12.238281 -4.539062 11.492188 -3.53125 10.578125 -2.75 C 9.671875 -1.96875 8.523438 -1.578125 7.140625 -1.578125 C 6.410156 -1.578125 5.707031 -1.710938 5.03125 -1.984375 C 4.363281 -2.253906 3.769531 -2.671875 3.25 -3.234375 C 2.726562 -3.796875 2.3125 -4.503906 2 -5.359375 C 1.6875 -6.222656 1.53125 -7.238281 1.53125 -8.40625 C 1.53125 -9.582031 1.675781 -10.691406 1.96875 -11.734375 C 2.269531 -12.773438 2.660156 -13.726562 3.140625 -14.59375 C 3.628906 -15.46875 4.191406 -16.242188 4.828125 -16.921875 C 5.460938 -17.597656 6.117188 -18.171875 6.796875 -18.640625 C 7.472656 -19.109375 8.148438 -19.46875 8.828125 -19.71875 C 9.515625 -19.96875 10.144531 -20.09375 10.71875 -20.09375 C 11.21875 -20.09375 11.695312 -20.03125 12.15625 -19.90625 C 12.625 -19.78125 13.039062 -19.578125 13.40625 -19.296875 C 13.78125 -19.015625 14.078125 -18.640625 14.296875 -18.171875 C 14.523438 -17.710938 14.640625 -17.132812 14.640625 -16.4375 C 14.640625 -15.613281 14.484375 -14.894531 14.171875 -14.28125 C 13.859375 -13.675781 13.476562 -13.164062 13.03125 -12.75 C 12.59375 -12.34375 12.144531 -12.015625 11.6875 -11.765625 C 11.238281 -11.515625 10.878906 -11.332031 10.609375 -11.21875 L 10.28125 -12.265625 C 10.332031 -12.265625 10.53125 -12.335938 10.875 -12.484375 C 11.226562 -12.628906 11.597656 -12.867188 11.984375 -13.203125 C 12.367188 -13.535156 12.722656 -13.957031 13.046875 -14.46875 C 13.367188 -14.988281 13.53125 -15.625 13.53125 -16.375 C 13.53125 -17.238281 13.285156 -17.898438 12.796875 -18.359375 C 12.316406 -18.816406 11.703125 -19.046875 10.953125 -19.046875 C 10.378906 -19.046875 9.707031 -18.835938 8.9375 -18.421875 C 8.164062 -18.015625 7.425781 -17.367188 6.71875 -16.484375 C 6.019531 -15.609375 5.421875 -14.5 4.921875 -13.15625 C 4.429688 -11.8125 4.1875 -10.210938 4.1875 -8.359375 C 4.1875 -6.515625 4.515625 -5.109375 5.171875 -4.140625 C 5.828125 -3.171875 6.707031 -2.6875 7.8125 -2.6875 C 8.363281 -2.6875 8.894531 -2.84375 9.40625 -3.15625 C 9.914062 -3.46875 10.382812 -3.882812 10.8125 -4.40625 C 11.25 -4.925781 11.632812 -5.53125 11.96875 -6.21875 C 12.3125 -6.90625 12.609375 -7.617188 12.859375 -8.359375 C 12.859375 -8.929688 12.925781 -9.601562 13.0625 -10.375 C 13.195312 -11.15625 13.410156 -11.945312 13.703125 -12.75 L 15.328125 -12.21875 C 15.242188 -11.988281 15.15625 -11.6875 15.0625 -11.3125 C 14.976562 -10.9375 14.894531 -10.523438 14.8125 -10.078125 C 14.726562 -9.628906 14.660156 -9.164062 14.609375 -8.6875 C 14.554688 -8.207031 14.53125 -7.75 14.53125 -7.3125 C 14.53125 -5.90625 14.664062 -4.9375 14.9375 -4.40625 C 15.21875 -3.882812 15.695312 -3.625 16.375 -3.625 C 16.769531 -3.625 17.160156 -3.765625 17.546875 -4.046875 C 17.929688 -4.335938 18.347656 -4.84375 18.796875 -5.5625 C 19.242188 -6.28125 19.734375 -7.25 20.265625 -8.46875 C 20.804688 -9.695312 21.4375 -11.25 22.15625 -13.125 Z M 23.203125 -12.859375 "/></g></g></g><g fill="#ffffff" fill-opacity="1"><g transform="translate(269.669112, 129.023773)"><g><path d="M 11.8125 -33.84375 C 11.8125 -32.707031 11.679688 -31.503906 11.421875 -30.234375 C 11.160156 -28.960938 10.820312 -27.671875 10.40625 -26.359375 C 9.988281 -25.054688 9.503906 -23.742188 8.953125 -22.421875 C 8.410156 -21.097656 7.859375 -19.828125 7.296875 -18.609375 C 6.742188 -17.390625 6.195312 -16.234375 5.65625 -15.140625 C 5.125 -14.054688 4.65625 -13.082031 4.25 -12.21875 C 4.3125 -10.75 4.429688 -9.421875 4.609375 -8.234375 C 4.796875 -7.054688 5.019531 -6.050781 5.28125 -5.21875 C 5.550781 -4.382812 5.875 -3.742188 6.25 -3.296875 C 6.632812 -2.847656 7.066406 -2.625 7.546875 -2.625 C 8.085938 -2.625 8.617188 -2.875 9.140625 -3.375 C 9.671875 -3.882812 10.203125 -4.59375 10.734375 -5.5 C 11.273438 -6.414062 11.820312 -7.519531 12.375 -8.8125 C 12.9375 -10.101562 13.503906 -11.539062 14.078125 -13.125 L 15.125 -12.859375 C 14.6875 -11.628906 14.195312 -10.328125 13.65625 -8.953125 C 13.125 -7.585938 12.523438 -6.332031 11.859375 -5.1875 C 11.203125 -4.039062 10.484375 -3.085938 9.703125 -2.328125 C 8.929688 -1.578125 8.097656 -1.203125 7.203125 -1.203125 C 6.304688 -1.203125 5.550781 -1.476562 4.9375 -2.03125 C 4.332031 -2.59375 3.832031 -3.328125 3.4375 -4.234375 C 3.039062 -5.140625 2.734375 -6.164062 2.515625 -7.3125 C 2.304688 -8.46875 2.144531 -9.644531 2.03125 -10.84375 C 1.925781 -12.050781 1.863281 -13.222656 1.84375 -14.359375 C 1.832031 -15.492188 1.828125 -16.5 1.828125 -17.375 C 1.828125 -19 1.894531 -20.617188 2.03125 -22.234375 C 2.164062 -23.847656 2.367188 -25.390625 2.640625 -26.859375 C 2.921875 -28.328125 3.257812 -29.691406 3.65625 -30.953125 C 4.050781 -32.210938 4.507812 -33.300781 5.03125 -34.21875 C 5.5625 -35.144531 6.144531 -35.867188 6.78125 -36.390625 C 7.414062 -36.910156 8.109375 -37.171875 8.859375 -37.171875 C 9.398438 -37.171875 9.859375 -37.078125 10.234375 -36.890625 C 10.609375 -36.710938 10.910156 -36.472656 11.140625 -36.171875 C 11.378906 -35.867188 11.550781 -35.515625 11.65625 -35.109375 C 11.757812 -34.710938 11.8125 -34.289062 11.8125 -33.84375 Z M 4.078125 -18.375 C 4.078125 -17.6875 4.078125 -17.015625 4.078125 -16.359375 C 4.078125 -15.710938 4.097656 -15.082031 4.140625 -14.46875 C 4.585938 -15.363281 5.0625 -16.34375 5.5625 -17.40625 C 6.0625 -18.476562 6.554688 -19.582031 7.046875 -20.71875 C 7.535156 -21.851562 8.003906 -23.003906 8.453125 -24.171875 C 8.898438 -25.335938 9.296875 -26.476562 9.640625 -27.59375 C 9.984375 -28.707031 10.253906 -29.769531 10.453125 -30.78125 C 10.660156 -31.800781 10.765625 -32.722656 10.765625 -33.546875 C 10.765625 -33.816406 10.742188 -34.101562 10.703125 -34.40625 C 10.660156 -34.707031 10.578125 -34.988281 10.453125 -35.25 C 10.335938 -35.507812 10.171875 -35.722656 9.953125 -35.890625 C 9.742188 -36.054688 9.46875 -36.140625 9.125 -36.140625 C 8.445312 -36.140625 7.796875 -35.695312 7.171875 -34.8125 C 6.554688 -33.925781 6.019531 -32.695312 5.5625 -31.125 C 5.113281 -29.550781 4.753906 -27.675781 4.484375 -25.5 C 4.210938 -23.320312 4.078125 -20.945312 4.078125 -18.375 Z M 4.078125 -18.375 "/></g></g></g><g fill="#ffffff" fill-opacity="1"><g transform="translate(281.216143, 129.023773)"><g><path d="M 23.203125 -12.859375 C 22.472656 -10.878906 21.804688 -9.21875 21.203125 -7.875 C 20.597656 -6.53125 20.015625 -5.445312 19.453125 -4.625 C 18.890625 -3.800781 18.332031 -3.207031 17.78125 -2.84375 C 17.226562 -2.488281 16.617188 -2.3125 15.953125 -2.3125 C 15.148438 -2.3125 14.460938 -2.59375 13.890625 -3.15625 C 13.316406 -3.71875 12.957031 -4.59375 12.8125 -5.78125 C 12.238281 -4.539062 11.492188 -3.53125 10.578125 -2.75 C 9.671875 -1.96875 8.523438 -1.578125 7.140625 -1.578125 C 6.410156 -1.578125 5.707031 -1.710938 5.03125 -1.984375 C 4.363281 -2.253906 3.769531 -2.671875 3.25 -3.234375 C 2.726562 -3.796875 2.3125 -4.503906 2 -5.359375 C 1.6875 -6.222656 1.53125 -7.238281 1.53125 -8.40625 C 1.53125 -9.582031 1.675781 -10.691406 1.96875 -11.734375 C 2.269531 -12.773438 2.660156 -13.726562 3.140625 -14.59375 C 3.628906 -15.46875 4.191406 -16.242188 4.828125 -16.921875 C 5.460938 -17.597656 6.117188 -18.171875 6.796875 -18.640625 C 7.472656 -19.109375 8.148438 -19.46875 8.828125 -19.71875 C 9.515625 -19.96875 10.144531 -20.09375 10.71875 -20.09375 C 11.21875 -20.09375 11.695312 -20.03125 12.15625 -19.90625 C 12.625 -19.78125 13.039062 -19.578125 13.40625 -19.296875 C 13.78125 -19.015625 14.078125 -18.640625 14.296875 -18.171875 C 14.523438 -17.710938 14.640625 -17.132812 14.640625 -16.4375 C 14.640625 -15.613281 14.484375 -14.894531 14.171875 -14.28125 C 13.859375 -13.675781 13.476562 -13.164062 13.03125 -12.75 C 12.59375 -12.34375 12.144531 -12.015625 11.6875 -11.765625 C 11.238281 -11.515625 10.878906 -11.332031 10.609375 -11.21875 L 10.28125 -12.265625 C 10.332031 -12.265625 10.53125 -12.335938 10.875 -12.484375 C 11.226562 -12.628906 11.597656 -12.867188 11.984375 -13.203125 C 12.367188 -13.535156 12.722656 -13.957031 13.046875 -14.46875 C 13.367188 -14.988281 13.53125 -15.625 13.53125 -16.375 C 13.53125 -17.238281 13.285156 -17.898438 12.796875 -18.359375 C 12.316406 -18.816406 11.703125 -19.046875 10.953125 -19.046875 C 10.378906 -19.046875 9.707031 -18.835938 8.9375 -18.421875 C 8.164062 -18.015625 7.425781 -17.367188 6.71875 -16.484375 C 6.019531 -15.609375 5.421875 -14.5 4.921875 -13.15625 C 4.429688 -11.8125 4.1875 -10.210938 4.1875 -8.359375 C 4.1875 -6.515625 4.515625 -5.109375 5.171875 -4.140625 C 5.828125 -3.171875 6.707031 -2.6875 7.8125 -2.6875 C 8.363281 -2.6875 8.894531 -2.84375 9.40625 -3.15625 C 9.914062 -3.46875 10.382812 -3.882812 10.8125 -4.40625 C 11.25 -4.925781 11.632812 -5.53125 11.96875 -6.21875 C 12.3125 -6.90625 12.609375 -7.617188 12.859375 -8.359375 C 12.859375 -8.929688 12.925781 -9.601562 13.0625 -10.375 C 13.195312 -11.15625 13.410156 -11.945312 13.703125 -12.75 L 15.328125 -12.21875 C 15.242188 -11.988281 15.15625 -11.6875 15.0625 -11.3125 C 14.976562 -10.9375 14.894531 -10.523438 14.8125 -10.078125 C 14.726562 -9.628906 14.660156 -9.164062 14.609375 -8.6875 C 14.554688 -8.207031 14.53125 -7.75 14.53125 -7.3125 C 14.53125 -5.90625 14.664062 -4.9375 14.9375 -4.40625 C 15.21875 -3.882812 15.695312 -3.625 16.375 -3.625 C 16.769531 -3.625 17.160156 -3.765625 17.546875 -4.046875 C 17.929688 -4.335938 18.347656 -4.84375 18.796875 -5.5625 C 19.242188 -6.28125 19.734375 -7.25 20.265625 -8.46875 C 20.804688 -9.695312 21.4375 -11.25 22.15625 -13.125 Z M 23.203125 -12.859375 "/></g></g></g><g fill="#000000" fill-opacity="1"><g transform="translate(181.031433, 160.021353)"><g/></g></g><g fill="#000000" fill-opacity="1"><g transform="translate(186.140807, 160.021353)"><g><path d="M 0.46875 -0.460938 C 1.441406 0.0390625 2.328125 0.0898438 2.730469 0.0585938 C 4.070312 -0.0117188 4.890625 -0.917969 4.890625 -2.109375 C 4.890625 -3.25 3.929688 -3.890625 2.820312 -4.300781 C 2.410156 -4.4375 2.058594 -4.617188 2.019531 -5.019531 C 1.988281 -5.417969 2.21875 -5.789062 2.730469 -5.820312 C 2.949219 -5.828125 3.398438 -5.839844 4.1875 -5.519531 L 4.367188 -6.898438 C 3.449219 -7.21875 2.960938 -7.21875 2.589844 -7.199219 C 1.398438 -7.136719 0.570312 -6.21875 0.570312 -5.019531 C 0.570312 -3.820312 1.570312 -3.25 2.6875 -2.839844 C 3.089844 -2.699219 3.398438 -2.519531 3.429688 -2.109375 C 3.46875 -1.71875 3.109375 -1.417969 2.6875 -1.390625 C 2.359375 -1.359375 1.46875 -1.378906 0.648438 -1.960938 Z M 0.46875 -0.460938 "/></g></g></g><g fill="#000000" fill-opacity="1"><g transform="translate(193.688715, 160.021353)"><g><path d="M 2.230469 0 L 2.230469 -2.730469 L 3.609375 -2.730469 C 6.378906 -2.730469 6.386719 -7.136719 3.609375 -7.136719 L 0.800781 -7.136719 L 0.800781 0 Z M 2.230469 -4.117188 L 2.230469 -5.71875 L 3.488281 -5.71875 C 4.449219 -5.71875 4.449219 -4.117188 3.488281 -4.117188 Z M 2.230469 -4.117188 "/></g></g></g><g fill="#000000" fill-opacity="1"><g transform="translate(201.976335, 160.021353)"><g><path d="M 0.160156 0 L 1.78125 0 L 2.058594 -0.769531 L 4.429688 -0.769531 L 4.71875 0 L 6.328125 0 L 3.320312 -7.40625 L 3.167969 -7.40625 Z M 2.578125 -2.109375 L 3.25 -3.96875 L 3.898438 -2.109375 Z M 2.578125 -2.109375 "/></g></g></g><g fill="#000000" fill-opacity="1"><g transform="translate(210.763753, 160.021353)"><g><path d="M 2.050781 -1.101562 L 0.570312 -1.101562 L 0.148438 1.160156 L 1.269531 1.160156 Z M 2.050781 -1.101562 "/></g></g></g><g fill="#000000" fill-opacity="1"><g transform="translate(215.422806, 160.021353)"><g/></g></g><g fill="#000000" fill-opacity="1"><g transform="translate(220.521678, 160.021353)"><g><path d="M 0.800781 0 L 3.628906 0 C 4.789062 0 5.738281 -0.949219 5.738281 -2.148438 C 5.738281 -2.710938 5.46875 -3.257812 5 -3.578125 C 5.449219 -3.890625 5.636719 -4.449219 5.660156 -4.988281 C 5.6875 -6.25 4.898438 -7.160156 3.628906 -7.160156 L 0.800781 -7.160156 Z M 2.238281 -5.730469 L 3.507812 -5.730469 C 3.917969 -5.730469 4.167969 -5.410156 4.167969 -5.007812 C 4.167969 -4.617188 3.917969 -4.289062 3.507812 -4.289062 L 2.238281 -4.289062 Z M 2.238281 -2.859375 L 3.507812 -2.859375 C 3.917969 -2.859375 4.230469 -2.550781 4.230469 -2.148438 C 4.230469 -1.75 3.917969 -1.429688 3.507812 -1.429688 L 2.238281 -1.429688 Z M 2.238281 -2.859375 "/></g></g></g><g fill="#000000" fill-opacity="1"><g transform="translate(228.989221, 160.021353)"><g><path d="M 4.5 0 L 4.5 -1.429688 L 2.230469 -1.429688 L 2.230469 -2.859375 L 4.109375 -2.859375 L 4.109375 -4.289062 L 2.230469 -4.289062 L 2.230469 -5.71875 L 4.378906 -5.71875 L 4.378906 -7.148438 L 0.800781 -7.148438 L 0.800781 0 Z M 4.5 0 "/></g></g></g><g fill="#000000" fill-opacity="1"><g transform="translate(236.287224, 160.021353)"><g><path d="M 0.160156 0 L 1.78125 0 L 2.058594 -0.769531 L 4.429688 -0.769531 L 4.71875 0 L 6.328125 0 L 3.320312 -7.40625 L 3.167969 -7.40625 Z M 2.578125 -2.109375 L 3.25 -3.96875 L 3.898438 -2.109375 Z M 2.578125 -2.109375 "/></g></g></g><g fill="#000000" fill-opacity="1"><g transform="translate(245.074643, 160.021353)"><g><path d="M 5.929688 -2.488281 L 5.929688 -7.148438 L 4.507812 -7.148438 L 4.507812 -2.5 C 4.507812 -1 2.1875 -1 2.1875 -2.5 L 2.1875 -7.148438 L 0.761719 -7.148438 L 0.761719 -2.488281 C 0.761719 0.910156 5.929688 0.910156 5.929688 -2.488281 Z M 5.929688 -2.488281 "/></g></g></g><g fill="#000000" fill-opacity="1"><g transform="translate(254.041998, 160.021353)"><g><path d="M 3.410156 0 L 3.410156 -5.71875 L 5.1875 -5.71875 L 5.1875 -7.136719 L 0.199219 -7.136719 L 0.199219 -5.71875 L 1.980469 -5.71875 L 1.980469 0 Z M 3.410156 0 "/></g></g></g><g fill="#000000" fill-opacity="1"><g transform="translate(261.769833, 160.021353)"><g><path d="M 2.550781 0 L 3.96875 0 L 3.96875 -3.21875 L 6.46875 -7.148438 L 4.71875 -7.148438 L 3.257812 -4.6875 L 1.800781 -7.148438 L 0.0585938 -7.148438 L 2.550781 -3.21875 Z M 2.550781 0 "/></g></g></g><g fill="#000000" fill-opacity="1"><g transform="translate(270.517267, 160.021353)"><g/></g></g><g fill="#000000" fill-opacity="1"><g transform="translate(275.616141, 160.021353)"><g><path d="M 2.230469 0 L 2.230469 -2.730469 L 3.609375 -2.730469 C 6.378906 -2.730469 6.386719 -7.136719 3.609375 -7.136719 L 0.800781 -7.136719 L 0.800781 0 Z M 2.230469 -4.117188 L 2.230469 -5.71875 L 3.488281 -5.71875 C 4.449219 -5.71875 4.449219 -4.117188 3.488281 -4.117188 Z M 2.230469 -4.117188 "/></g></g></g><g fill="#000000" fill-opacity="1"><g transform="translate(283.903763, 160.021353)"><g><path d="M 0.800781 -7.148438 L 0.800781 0 L 4.5 0 L 4.5 -1.429688 L 2.230469 -1.429688 L 2.230469 -7.148438 Z M 0.800781 -7.148438 "/></g></g></g><g fill="#000000" fill-opacity="1"><g transform="translate(291.091808, 160.021353)"><g><path d="M 0.160156 0 L 1.78125 0 L 2.058594 -0.769531 L 4.429688 -0.769531 L 4.71875 0 L 6.328125 0 L 3.320312 -7.40625 L 3.167969 -7.40625 Z M 2.578125 -2.109375 L 3.25 -3.96875 L 3.898438 -2.109375 Z M 2.578125 -2.109375 "/></g></g></g><g fill="#000000" fill-opacity="1"><g transform="translate(299.879222, 160.021353)"><g><path d="M 5.347656 -5.488281 L 5.519531 -6.957031 C 5.089844 -7.148438 4.609375 -7.238281 4.109375 -7.238281 C -0.730469 -7.238281 -0.738281 0.0195312 4.109375 0.0195312 C 4.609375 0.0195312 5.238281 -0.101562 5.679688 -0.28125 L 5.488281 -1.757812 C 5.21875 -1.621094 4.730469 -1.441406 4.109375 -1.441406 C 1.28125 -1.441406 1.28125 -5.796875 4.109375 -5.796875 C 4.730469 -5.796875 5.078125 -5.628906 5.347656 -5.488281 Z M 5.347656 -5.488281 "/></g></g></g><g fill="#000000" fill-opacity="1"><g transform="translate(308.156836, 160.021353)"><g><path d="M 4.5 0 L 4.5 -1.429688 L 2.230469 -1.429688 L 2.230469 -2.859375 L 4.109375 -2.859375 L 4.109375 -4.289062 L 2.230469 -4.289062 L 2.230469 -5.71875 L 4.378906 -5.71875 L 4.378906 -7.148438 L 0.800781 -7.148438 L 0.800781 0 Z M 4.5 0 "/></g></g></g><g fill="#000000" fill-opacity="1"><g transform="translate(315.454836, 160.021353)"><g/></g></g><g fill="#000000" fill-opacity="1"><g transform="translate(320.553706, 160.021353)"><g><path d="M 3.046875 -7.25 C 3.578125 -7.25 3.992188 -7.113281 4.296875 -6.84375 C 4.609375 -6.570312 4.765625 -6.191406 4.765625 -5.703125 C 4.765625 -5.285156 4.628906 -4.929688 4.359375 -4.640625 C 4.085938 -4.347656 3.75 -4.082031 3.34375 -3.84375 L 5.265625 -1.984375 C 5.441406 -2.191406 5.582031 -2.425781 5.6875 -2.6875 C 5.800781 -2.957031 5.894531 -3.25 5.96875 -3.5625 L 6.859375 -3.5625 C 6.753906 -3.132812 6.617188 -2.738281 6.453125 -2.375 C 6.296875 -2.007812 6.09375 -1.691406 5.84375 -1.421875 L 7.296875 0 L 6.109375 0 L 5.234375 -0.84375 C 4.921875 -0.5625 4.570312 -0.332031 4.1875 -0.15625 C 3.800781 0.0078125 3.332031 0.09375 2.78125 0.09375 C 2.082031 0.09375 1.53125 -0.0703125 1.125 -0.40625 C 0.726562 -0.75 0.53125 -1.234375 0.53125 -1.859375 C 0.53125 -2.367188 0.664062 -2.78125 0.9375 -3.09375 C 1.21875 -3.40625 1.59375 -3.691406 2.0625 -3.953125 C 1.851562 -4.191406 1.65625 -4.445312 1.46875 -4.71875 C 1.289062 -5 1.203125 -5.320312 1.203125 -5.6875 C 1.203125 -6.175781 1.363281 -6.554688 1.6875 -6.828125 C 2.019531 -7.109375 2.472656 -7.25 3.046875 -7.25 Z M 3.015625 -6.53125 C 2.734375 -6.53125 2.503906 -6.457031 2.328125 -6.3125 C 2.148438 -6.164062 2.0625 -5.960938 2.0625 -5.703125 C 2.0625 -5.460938 2.125 -5.238281 2.25 -5.03125 C 2.375 -4.832031 2.554688 -4.609375 2.796875 -4.359375 C 3.191406 -4.585938 3.472656 -4.800781 3.640625 -5 C 3.816406 -5.195312 3.90625 -5.429688 3.90625 -5.703125 C 3.90625 -5.941406 3.820312 -6.140625 3.65625 -6.296875 C 3.5 -6.453125 3.285156 -6.53125 3.015625 -6.53125 Z M 2.59375 -3.40625 C 2.238281 -3.195312 1.957031 -2.984375 1.75 -2.765625 C 1.550781 -2.546875 1.453125 -2.253906 1.453125 -1.890625 C 1.453125 -1.523438 1.570312 -1.234375 1.8125 -1.015625 C 2.0625 -0.796875 2.394531 -0.6875 2.8125 -0.6875 C 3.238281 -0.6875 3.601562 -0.753906 3.90625 -0.890625 C 4.207031 -1.023438 4.46875 -1.191406 4.6875 -1.390625 Z M 2.59375 -3.40625 "/></g></g></g><g fill="#000000" fill-opacity="1"><g transform="translate(172.019715, 172.771352)"><g><path d="M 2.230469 0 L 2.230469 -2.730469 L 3.609375 -2.730469 C 6.378906 -2.730469 6.386719 -7.136719 3.609375 -7.136719 L 0.800781 -7.136719 L 0.800781 0 Z M 2.230469 -4.117188 L 2.230469 -5.71875 L 3.488281 -5.71875 C 4.449219 -5.71875 4.449219 -4.117188 3.488281 -4.117188 Z M 2.230469 -4.117188 "/></g></g></g><g fill="#000000" fill-opacity="1"><g transform="translate(180.307334, 172.771352)"><g><path d="M 4.238281 0.101562 C 9.15625 0.101562 9.15625 -7.269531 4.238281 -7.269531 C -0.679688 -7.269531 -0.679688 0.101562 4.238281 0.101562 Z M 4.238281 -1.378906 C 1.378906 -1.378906 1.378906 -5.796875 4.238281 -5.796875 C 7.097656 -5.796875 7.097656 -1.378906 4.238281 -1.378906 Z M 4.238281 -1.378906 "/></g></g></g><g fill="#000000" fill-opacity="1"><g transform="translate(191.033987, 172.771352)"><g><path d="M 0.46875 -0.460938 C 1.441406 0.0390625 2.328125 0.0898438 2.730469 0.0585938 C 4.070312 -0.0117188 4.890625 -0.917969 4.890625 -2.109375 C 4.890625 -3.25 3.929688 -3.890625 2.820312 -4.300781 C 2.410156 -4.4375 2.058594 -4.617188 2.019531 -5.019531 C 1.988281 -5.417969 2.21875 -5.789062 2.730469 -5.820312 C 2.949219 -5.828125 3.398438 -5.839844 4.1875 -5.519531 L 4.367188 -6.898438 C 3.449219 -7.21875 2.960938 -7.21875 2.589844 -7.199219 C 1.398438 -7.136719 0.570312 -6.21875 0.570312 -5.019531 C 0.570312 -3.820312 1.570312 -3.25 2.6875 -2.839844 C 3.089844 -2.699219 3.398438 -2.519531 3.429688 -2.109375 C 3.46875 -1.71875 3.109375 -1.417969 2.6875 -1.390625 C 2.359375 -1.359375 1.46875 -1.378906 0.648438 -1.960938 Z M 0.46875 -0.460938 "/></g></g></g><g fill="#000000" fill-opacity="1"><g transform="translate(198.581896, 172.771352)"><g><path d="M 3.410156 0 L 3.410156 -5.71875 L 5.1875 -5.71875 L 5.1875 -7.136719 L 0.199219 -7.136719 L 0.199219 -5.71875 L 1.980469 -5.71875 L 1.980469 0 Z M 3.410156 0 "/></g></g></g><g fill="#000000" fill-opacity="1"><g transform="translate(206.309727, 172.771352)"><g><path d="M 2.230469 0 L 2.230469 -2.730469 L 3.609375 -2.730469 C 6.378906 -2.730469 6.386719 -7.136719 3.609375 -7.136719 L 0.800781 -7.136719 L 0.800781 0 Z M 2.230469 -4.117188 L 2.230469 -5.71875 L 3.488281 -5.71875 C 4.449219 -5.71875 4.449219 -4.117188 3.488281 -4.117188 Z M 2.230469 -4.117188 "/></g></g></g><g fill="#000000" fill-opacity="1"><g transform="translate(214.597347, 172.771352)"><g><path d="M 0.160156 0 L 1.78125 0 L 2.058594 -0.769531 L 4.429688 -0.769531 L 4.71875 0 L 6.328125 0 L 3.320312 -7.40625 L 3.167969 -7.40625 Z M 2.578125 -2.109375 L 3.25 -3.96875 L 3.898438 -2.109375 Z M 2.578125 -2.109375 "/></g></g></g><g fill="#000000" fill-opacity="1"><g transform="translate(223.384766, 172.771352)"><g><path d="M 4.359375 0 L 5.976562 0 L 4.320312 -2.949219 C 6.417969 -3.558594 6.167969 -7.148438 3.617188 -7.148438 L 0.800781 -7.148438 L 0.800781 0 L 2.230469 0 L 2.230469 -2.730469 L 2.917969 -2.730469 Z M 2.230469 -4.117188 L 2.230469 -5.71875 L 3.488281 -5.71875 C 4.457031 -5.71875 4.457031 -4.117188 3.488281 -4.117188 Z M 2.230469 -4.117188 "/></g></g></g><g fill="#000000" fill-opacity="1"><g transform="translate(231.772341, 172.771352)"><g><path d="M 3.410156 0 L 3.410156 -5.71875 L 5.1875 -5.71875 L 5.1875 -7.136719 L 0.199219 -7.136719 L 0.199219 -5.71875 L 1.980469 -5.71875 L 1.980469 0 Z M 3.410156 0 "/></g></g></g><g fill="#000000" fill-opacity="1"><g transform="translate(239.500175, 172.771352)"><g><path d="M 5.929688 -2.488281 L 5.929688 -7.148438 L 4.507812 -7.148438 L 4.507812 -2.5 C 4.507812 -1 2.1875 -1 2.1875 -2.5 L 2.1875 -7.148438 L 0.761719 -7.148438 L 0.761719 -2.488281 C 0.761719 0.910156 5.929688 0.910156 5.929688 -2.488281 Z M 5.929688 -2.488281 "/></g></g></g><g fill="#000000" fill-opacity="1"><g transform="translate(248.46753, 172.771352)"><g><path d="M 4.078125 -4.117188 L 1.257812 -7.257812 L 0.800781 -7.257812 L 0.800781 0 L 2.25 0 L 2.25 -3.988281 L 4.078125 -2.070312 L 5.910156 -3.988281 L 5.898438 0 L 7.347656 0 L 7.347656 -7.257812 L 6.898438 -7.257812 Z M 4.078125 -4.117188 "/></g></g></g><g fill="#000000" fill-opacity="1"><g transform="translate(258.884314, 172.771352)"><g/></g></g><g fill="#000000" fill-opacity="1"><g transform="translate(263.983189, 172.771352)"><g><path d="M 5.796875 0 L 5.796875 -7.148438 L 4.367188 -7.148438 L 4.367188 -4.289062 L 2.230469 -4.289062 L 2.230469 -7.148438 L 0.800781 -7.148438 L 0.800781 0 L 2.230469 0 L 2.230469 -2.859375 L 4.367188 -2.859375 L 4.367188 0 Z M 5.796875 0 "/></g></g></g><g fill="#000000" fill-opacity="1"><g transform="translate(272.85058, 172.771352)"><g><path d="M 4.238281 0.101562 C 9.15625 0.101562 9.15625 -7.269531 4.238281 -7.269531 C -0.679688 -7.269531 -0.679688 0.101562 4.238281 0.101562 Z M 4.238281 -1.378906 C 1.378906 -1.378906 1.378906 -5.796875 4.238281 -5.796875 C 7.097656 -5.796875 7.097656 -1.378906 4.238281 -1.378906 Z M 4.238281 -1.378906 "/></g></g></g><g fill="#000000" fill-opacity="1"><g transform="translate(283.577229, 172.771352)"><g><path d="M 4.078125 -4.117188 L 1.257812 -7.257812 L 0.800781 -7.257812 L 0.800781 0 L 2.25 0 L 2.25 -3.988281 L 4.078125 -2.070312 L 5.910156 -3.988281 L 5.898438 0 L 7.347656 0 L 7.347656 -7.257812 L 6.898438 -7.257812 Z M 4.078125 -4.117188 "/></g></g></g><g fill="#000000" fill-opacity="1"><g transform="translate(293.994007, 172.771352)"><g><path d="M 4.5 0 L 4.5 -1.429688 L 2.230469 -1.429688 L 2.230469 -2.859375 L 4.109375 -2.859375 L 4.109375 -4.289062 L 2.230469 -4.289062 L 2.230469 -5.71875 L 4.378906 -5.71875 L 4.378906 -7.148438 L 0.800781 -7.148438 L 0.800781 0 Z M 4.5 0 "/></g></g></g><g fill="#000000" fill-opacity="1"><g transform="translate(301.292007, 172.771352)"><g/></g></g><g fill="#000000" fill-opacity="1"><g transform="translate(306.390876, 172.771352)"><g><path d="M 5.347656 -5.488281 L 5.519531 -6.957031 C 5.089844 -7.148438 4.609375 -7.238281 4.109375 -7.238281 C -0.730469 -7.238281 -0.738281 0.0195312 4.109375 0.0195312 C 4.609375 0.0195312 5.238281 -0.101562 5.679688 -0.28125 L 5.488281 -1.757812 C 5.21875 -1.621094 4.730469 -1.441406 4.109375 -1.441406 C 1.28125 -1.441406 1.28125 -5.796875 4.109375 -5.796875 C 4.730469 -5.796875 5.078125 -5.628906 5.347656 -5.488281 Z M 5.347656 -5.488281 "/></g></g></g><g fill="#000000" fill-opacity="1"><g transform="translate(314.66849, 172.771352)"><g><path d="M 0.160156 0 L 1.78125 0 L 2.058594 -0.769531 L 4.429688 -0.769531 L 4.71875 0 L 6.328125 0 L 3.320312 -7.40625 L 3.167969 -7.40625 Z M 2.578125 -2.109375 L 3.25 -3.96875 L 3.898438 -2.109375 Z M 2.578125 -2.109375 "/></g></g></g><g fill="#000000" fill-opacity="1"><g transform="translate(323.455904, 172.771352)"><g><path d="M 4.359375 0 L 5.976562 0 L 4.320312 -2.949219 C 6.417969 -3.558594 6.167969 -7.148438 3.617188 -7.148438 L 0.800781 -7.148438 L 0.800781 0 L 2.230469 0 L 2.230469 -2.730469 L 2.917969 -2.730469 Z M 2.230469 -4.117188 L 2.230469 -5.71875 L 3.488281 -5.71875 C 4.457031 -5.71875 4.457031 -4.117188 3.488281 -4.117188 Z M 2.230469 -4.117188 "/></g></g></g><g fill="#000000" fill-opacity="1"><g transform="translate(331.843473, 172.771352)"><g><path d="M 4.5 0 L 4.5 -1.429688 L 2.230469 -1.429688 L 2.230469 -2.859375 L 4.109375 -2.859375 L 4.109375 -4.289062 L 2.230469 -4.289062 L 2.230469 -5.71875 L 4.378906 -5.71875 L 4.378906 -7.148438 L 0.800781 -7.148438 L 0.800781 0 Z M 4.5 0 "/></g></g></g></svg>