<svg xmlns="http://www.w3.org/2000/svg" xmlns:xlink="http://www.w3.org/1999/xlink" width="500" zoomAndPan="magnify" viewBox="0 0 375 374.999991" height="500" preserveAspectRatio="xMidYMid meet" version="1.0"><defs><g/><clipPath id="0e66e86fa0"><path d="M 9.375 112.351562 L 135 112.351562 L 135 248.101562 L 9.375 248.101562 Z M 9.375 112.351562 " clip-rule="nonzero"/></clipPath><clipPath id="43aa2f5532"><path d="M 92 125 L 155.625 125 L 155.625 248.101562 L 92 248.101562 Z M 92 125 " clip-rule="nonzero"/></clipPath></defs><g clip-path="url(#0e66e86fa0)"><path fill="#000000" d="M 39.671875 112.375 C 39.671875 112.375 86.078125 132.511719 87.375 195.507812 C 88.015625 235.421875 116.152344 245.542969 134.867188 248.410156 C 118.285156 247.976562 43.472656 244.71875 9.375 179.273438 C 9.375 179.273438 42.546875 177.261719 59.730469 190.855469 C 57.039062 185.941406 34.363281 153.175781 39.671875 112.375 Z M 39.671875 112.375 " fill-opacity="1" fill-rule="nonzero"/></g><g clip-path="url(#43aa2f5532)"><path fill="#000000" d="M 146.296875 242.136719 C 143.988281 241.507812 141.53125 240.199219 139.238281 237.71875 C 136.273438 234.335938 135.25 230.65625 136.25 227.546875 C 137.25 224.445312 139.878906 223.792969 141.421875 222.988281 C 142.964844 222.1875 144.914062 220.878906 144.914062 220.878906 C 150.335938 217.632812 147.855469 215.113281 147.003906 214.25 C 146.164062 213.371094 142.65625 210.136719 142.65625 210.136719 C 142.65625 210.136719 142.730469 209.988281 143.457031 208.695312 C 144.496094 206.273438 142.546875 206.285156 140.753906 206.3125 C 138.976562 206.347656 139.507812 205.558594 140.890625 204.164062 C 142.519531 202.152344 140.335938 202.136719 138.484375 201.78125 C 136.644531 201.421875 137.125 199.484375 137.125 199.484375 C 137.125 199.484375 137.558594 197.917969 138.25 196.078125 C 138.804688 194.433594 137.113281 194.210938 137.113281 194.210938 C 137.113281 194.210938 132.101562 193.472656 129.988281 193.210938 C 127.878906 192.953125 126.644531 191.039062 121.878906 186.347656 C 114.101562 179.226562 98.65625 179.65625 98.65625 179.65625 C 98.65625 179.65625 113.039062 184.71875 118.3125 196.769531 C 123.582031 208.828125 120.917969 223.976562 127.828125 238.902344 C 129.65625 242.839844 131.878906 246.222656 134.792969 248.421875 C 101.164062 240.074219 69.707031 207.003906 116.226562 125.363281 C 116.25 125.347656 177.792969 178.125 146.296875 242.136719 Z M 146.296875 242.136719 " fill-opacity="1" fill-rule="nonzero"/></g><g fill="#ffffff" fill-opacity="1"><g transform="translate(163.477861, 187.143017)"><g><path d="M 30.8125 -49.328125 C 31.425781 -49.328125 31.925781 -49.15625 32.3125 -48.8125 C 32.707031 -48.476562 32.90625 -48.007812 32.90625 -47.40625 C 32.90625 -46.550781 32.59375 -45.773438 31.96875 -45.078125 C 31.351562 -44.390625 30.582031 -43.769531 29.65625 -43.21875 C 28.726562 -42.675781 27.71875 -42.207031 26.625 -41.8125 C 25.539062 -41.425781 24.535156 -41.125 23.609375 -40.90625 C 23.054688 -39.53125 22.617188 -37.914062 22.296875 -36.0625 C 21.972656 -34.21875 21.8125 -32.046875 21.8125 -29.546875 C 21.8125 -27.929688 21.832031 -26.242188 21.875 -24.484375 C 21.914062 -22.722656 21.957031 -20.914062 22 -19.0625 C 23.21875 -18.582031 24.335938 -17.988281 25.359375 -17.28125 C 26.390625 -16.570312 27.359375 -15.765625 28.265625 -14.859375 C 30.460938 -15.359375 32.4375 -16.117188 34.1875 -17.140625 C 35.945312 -18.160156 37.484375 -19.390625 38.796875 -20.828125 C 40.117188 -22.265625 41.222656 -23.863281 42.109375 -25.625 C 43.003906 -27.382812 43.703125 -29.242188 44.203125 -31.203125 C 44.835938 -33.773438 45.566406 -35.992188 46.390625 -37.859375 C 47.210938 -39.734375 48.078125 -41.332031 48.984375 -42.65625 C 49.890625 -43.988281 50.804688 -45.078125 51.734375 -45.921875 C 52.671875 -46.773438 53.554688 -47.457031 54.390625 -47.96875 C 55.234375 -48.476562 56.003906 -48.847656 56.703125 -49.078125 C 57.398438 -49.304688 57.957031 -49.46875 58.375 -49.5625 L 58.765625 -48.671875 C 57.148438 -48.285156 55.757812 -47.523438 54.59375 -46.390625 C 53.4375 -45.253906 52.4375 -43.898438 51.59375 -42.328125 C 50.757812 -40.765625 50.0625 -39.0625 49.5 -37.21875 C 48.945312 -35.382812 48.476562 -33.585938 48.09375 -31.828125 C 47.375 -28.691406 46.382812 -26.03125 45.125 -23.84375 C 43.875 -21.65625 42.441406 -19.835938 40.828125 -18.390625 C 39.222656 -16.941406 37.472656 -15.816406 35.578125 -15.015625 C 33.691406 -14.210938 31.722656 -13.644531 29.671875 -13.3125 C 30.953125 -11.8125 32.148438 -10.1875 33.265625 -8.4375 C 34.378906 -6.6875 35.445312 -4.9375 36.46875 -3.1875 C 37.488281 -1.4375 38.507812 0.253906 39.53125 1.890625 C 40.550781 3.523438 41.628906 4.96875 42.765625 6.21875 C 43.898438 7.46875 45.113281 8.46875 46.40625 9.21875 C 47.695312 9.96875 49.140625 10.34375 50.734375 10.34375 C 51.234375 10.34375 51.753906 10.304688 52.296875 10.234375 C 52.835938 10.160156 53.414062 10.023438 54.03125 9.828125 L 54.421875 10.765625 C 54.398438 10.796875 54.222656 10.890625 53.890625 11.046875 C 53.566406 11.210938 53.128906 11.394531 52.578125 11.59375 C 52.023438 11.789062 51.378906 11.96875 50.640625 12.125 C 49.898438 12.289062 49.09375 12.375 48.21875 12.375 C 46 12.375 44.082031 11.921875 42.46875 11.015625 C 40.863281 10.109375 39.460938 8.910156 38.265625 7.421875 C 37.066406 5.929688 36.003906 4.222656 35.078125 2.296875 C 34.148438 0.367188 33.265625 -1.625 32.421875 -3.6875 C 31.585938 -5.625 30.765625 -7.363281 29.953125 -8.90625 C 29.140625 -10.457031 28.273438 -11.832031 27.359375 -13.03125 C 26.742188 -12.957031 26.132812 -12.914062 25.53125 -12.90625 C 24.9375 -12.894531 24.335938 -12.890625 23.734375 -12.890625 L 22.140625 -12.890625 L 22.140625 -12.5 C 22.140625 -10.539062 22.050781 -8.640625 21.875 -6.796875 C 21.695312 -4.960938 21.394531 -3.238281 20.96875 -1.625 C 20.550781 -0.0195312 19.972656 1.453125 19.234375 2.796875 C 18.492188 4.148438 17.5625 5.304688 16.4375 6.265625 C 15.3125 7.222656 13.972656 7.96875 12.421875 8.5 C 10.867188 9.03125 9.046875 9.296875 6.953125 9.296875 C 5.191406 9.296875 3.488281 9.03125 1.84375 8.5 C 0.195312 7.96875 -1.304688 7.160156 -2.671875 6.078125 L -1.859375 5.09375 C -0.660156 6.070312 0.691406 6.804688 2.203125 7.296875 C 3.710938 7.785156 5.253906 8.03125 6.828125 8.03125 C 8.609375 8.03125 10.128906 7.734375 11.390625 7.140625 C 12.648438 6.554688 13.695312 5.769531 14.53125 4.78125 C 15.375 3.789062 16.046875 2.640625 16.546875 1.328125 C 17.046875 0.0234375 17.421875 -1.347656 17.671875 -2.796875 C 17.921875 -4.242188 18.078125 -5.71875 18.140625 -7.21875 C 18.210938 -8.71875 18.25 -10.140625 18.25 -11.484375 L 18.25 -13.25 C 16.832031 -13.46875 15.703125 -13.757812 14.859375 -14.125 C 14.023438 -14.5 13.390625 -14.878906 12.953125 -15.265625 C 12.523438 -15.660156 12.242188 -16.035156 12.109375 -16.390625 C 11.984375 -16.753906 11.921875 -17.054688 11.921875 -17.296875 C 11.921875 -17.796875 12.03125 -18.226562 12.25 -18.59375 C 12.476562 -18.96875 12.785156 -19.269531 13.171875 -19.5 C 13.554688 -19.726562 14.007812 -19.894531 14.53125 -20 C 15.050781 -20.113281 15.601562 -20.171875 16.1875 -20.171875 C 16.519531 -20.171875 16.851562 -20.160156 17.1875 -20.140625 C 17.519531 -20.117188 17.851562 -20.085938 18.1875 -20.046875 L 18.1875 -21.8125 C 18.1875 -26.070312 18.5 -29.734375 19.125 -32.796875 C 19.757812 -35.867188 20.554688 -38.441406 21.515625 -40.515625 C 19.972656 -40.335938 18.445312 -40.234375 16.9375 -40.203125 C 15.4375 -40.171875 13.957031 -40.035156 12.5 -39.796875 C 11.039062 -39.554688 9.613281 -39.132812 8.21875 -38.53125 C 6.832031 -37.9375 5.5 -37 4.21875 -35.71875 L 3.203125 -36.5 C 4.460938 -37.800781 5.75 -38.789062 7.0625 -39.46875 C 8.382812 -40.144531 9.738281 -40.628906 11.125 -40.921875 C 12.519531 -41.210938 13.960938 -41.390625 15.453125 -41.453125 C 16.941406 -41.523438 18.515625 -41.613281 20.171875 -41.71875 C 20.472656 -41.71875 20.789062 -41.738281 21.125 -41.78125 C 21.46875 -41.832031 21.828125 -41.878906 22.203125 -41.921875 C 22.984375 -43.378906 23.800781 -44.585938 24.65625 -45.546875 C 25.519531 -46.503906 26.347656 -47.265625 27.140625 -47.828125 C 27.941406 -48.390625 28.664062 -48.78125 29.3125 -49 C 29.96875 -49.21875 30.46875 -49.328125 30.8125 -49.328125 Z M 30.8125 -48.09375 C 30.570312 -48.09375 30.207031 -48.007812 29.71875 -47.84375 C 29.226562 -47.675781 28.671875 -47.378906 28.046875 -46.953125 C 27.429688 -46.535156 26.789062 -45.953125 26.125 -45.203125 C 25.46875 -44.453125 24.84375 -43.488281 24.25 -42.3125 C 25.164062 -42.550781 26.0625 -42.832031 26.9375 -43.15625 C 27.820312 -43.476562 28.613281 -43.851562 29.3125 -44.28125 C 30.007812 -44.707031 30.570312 -45.175781 31 -45.6875 C 31.425781 -46.195312 31.640625 -46.75 31.640625 -47.34375 C 31.640625 -47.507812 31.578125 -47.675781 31.453125 -47.84375 C 31.335938 -48.007812 31.125 -48.09375 30.8125 -48.09375 Z M 16.125 -18.9375 C 15.019531 -18.9375 14.265625 -18.765625 13.859375 -18.421875 C 13.453125 -18.085938 13.25 -17.738281 13.25 -17.375 C 13.25 -16.800781 13.691406 -16.25 14.578125 -15.71875 C 15.460938 -15.1875 16.6875 -14.78125 18.25 -14.5 C 18.25 -15.238281 18.238281 -15.960938 18.21875 -16.671875 C 18.195312 -17.378906 18.1875 -18.078125 18.1875 -18.765625 C 17.851562 -18.816406 17.503906 -18.859375 17.140625 -18.890625 C 16.785156 -18.921875 16.445312 -18.9375 16.125 -18.9375 Z M 26.15625 -14.421875 C 25.519531 -15.097656 24.863281 -15.703125 24.1875 -16.234375 C 23.507812 -16.773438 22.800781 -17.226562 22.0625 -17.59375 C 22.0625 -17.03125 22.070312 -16.457031 22.09375 -15.875 C 22.125 -15.300781 22.140625 -14.734375 22.140625 -14.171875 L 22.203125 -14.171875 C 22.898438 -14.171875 23.570312 -14.1875 24.21875 -14.21875 C 24.875 -14.25 25.519531 -14.316406 26.15625 -14.421875 Z M 26.15625 -14.421875 "/></g></g></g><g fill="#ffffff" fill-opacity="1"><g transform="translate(215.548538, 187.143017)"><g><path d="M 15.578125 -7.546875 C 14.898438 -6.328125 14.242188 -5.3125 13.609375 -4.5 C 12.984375 -3.695312 12.359375 -3.054688 11.734375 -2.578125 C 11.117188 -2.097656 10.492188 -1.757812 9.859375 -1.5625 C 9.222656 -1.363281 8.570312 -1.265625 7.90625 -1.265625 C 7.351562 -1.265625 6.726562 -1.351562 6.03125 -1.53125 C 5.34375 -1.707031 4.6875 -2.070312 4.0625 -2.625 C 3.445312 -3.175781 2.925781 -3.972656 2.5 -5.015625 C 2.070312 -6.066406 1.859375 -7.472656 1.859375 -9.234375 C 1.859375 -11.003906 2.0625 -12.664062 2.46875 -14.21875 C 2.882812 -15.769531 3.347656 -17.132812 3.859375 -18.3125 C 4.441406 -19.664062 5.113281 -20.914062 5.875 -22.0625 L 7.078125 -21.671875 C 7.054688 -21.648438 6.984375 -21.453125 6.859375 -21.078125 C 6.742188 -20.710938 6.59375 -20.210938 6.40625 -19.578125 C 6.226562 -18.953125 6.035156 -18.222656 5.828125 -17.390625 C 5.617188 -16.566406 5.421875 -15.691406 5.234375 -14.765625 C 5.054688 -13.847656 4.90625 -12.910156 4.78125 -11.953125 C 4.664062 -10.992188 4.609375 -10.066406 4.609375 -9.171875 C 4.609375 -7.128906 4.972656 -5.515625 5.703125 -4.328125 C 6.429688 -3.140625 7.378906 -2.546875 8.546875 -2.546875 C 9.859375 -2.546875 11.125 -3.300781 12.34375 -4.8125 C 13.5625 -6.320312 14.722656 -8.441406 15.828125 -11.171875 C 16.023438 -12.429688 16.289062 -13.601562 16.625 -14.6875 C 16.96875 -15.78125 17.304688 -16.75 17.640625 -17.59375 C 17.984375 -18.445312 18.296875 -19.15625 18.578125 -19.71875 C 18.859375 -20.28125 19.066406 -20.660156 19.203125 -20.859375 L 20.34375 -20.59375 C 19.988281 -18.96875 19.6875 -17.503906 19.4375 -16.203125 C 19.1875 -14.910156 18.984375 -13.738281 18.828125 -12.6875 C 18.679688 -11.644531 18.566406 -10.71875 18.484375 -9.90625 C 18.410156 -9.09375 18.375 -8.359375 18.375 -7.703125 C 18.375 -6.398438 18.582031 -5.351562 19 -4.5625 C 19.414062 -3.78125 20.054688 -3.390625 20.921875 -3.390625 C 21.515625 -3.390625 22.082031 -3.609375 22.625 -4.046875 C 23.164062 -4.484375 23.726562 -5.203125 24.3125 -6.203125 C 24.90625 -7.203125 25.523438 -8.492188 26.171875 -10.078125 C 26.828125 -11.671875 27.570312 -13.632812 28.40625 -15.96875 L 29.671875 -15.640625 C 29.304688 -14.722656 28.9375 -13.738281 28.5625 -12.6875 C 28.195312 -11.644531 27.800781 -10.601562 27.375 -9.5625 C 26.945312 -8.519531 26.5 -7.519531 26.03125 -6.5625 C 25.5625 -5.601562 25.039062 -4.753906 24.46875 -4.015625 C 23.894531 -3.273438 23.269531 -2.6875 22.59375 -2.25 C 21.914062 -1.8125 21.164062 -1.59375 20.34375 -1.59375 C 19.550781 -1.59375 18.863281 -1.742188 18.28125 -2.046875 C 17.695312 -2.359375 17.203125 -2.773438 16.796875 -3.296875 C 16.390625 -3.816406 16.082031 -4.441406 15.875 -5.171875 C 15.675781 -5.898438 15.578125 -6.691406 15.578125 -7.546875 Z M 15.578125 -7.546875 "/></g></g></g><g fill="#ffffff" fill-opacity="1"><g transform="translate(240.88198, 187.143017)"><g><path d="M 3.0625 -15.96875 C 3.195312 -16.394531 3.320312 -16.851562 3.4375 -17.34375 C 3.5625 -17.84375 3.6875 -18.503906 3.8125 -19.328125 C 3.863281 -19.648438 4.082031 -19.921875 4.46875 -20.140625 C 4.863281 -20.359375 5.304688 -20.519531 5.796875 -20.625 C 6.285156 -20.738281 6.765625 -20.816406 7.234375 -20.859375 C 7.703125 -20.898438 8.035156 -20.921875 8.234375 -20.921875 C 8.972656 -20.921875 9.679688 -20.878906 10.359375 -20.796875 C 11.046875 -20.710938 11.757812 -20.671875 12.5 -20.671875 C 13.332031 -20.671875 14.1875 -20.804688 15.0625 -21.078125 C 15.945312 -21.347656 16.898438 -21.914062 17.921875 -22.78125 C 17.984375 -22.851562 18.046875 -22.894531 18.109375 -22.90625 C 18.179688 -22.914062 18.25 -22.921875 18.3125 -22.921875 C 18.488281 -22.921875 18.644531 -22.851562 18.78125 -22.71875 C 18.925781 -22.59375 19 -22.460938 19 -22.328125 C 19 -21.109375 18.847656 -19.890625 18.546875 -18.671875 C 18.242188 -17.453125 17.84375 -16.265625 17.34375 -15.109375 C 16.851562 -13.960938 16.296875 -12.867188 15.671875 -11.828125 C 15.054688 -10.796875 14.429688 -9.847656 13.796875 -8.984375 C 13.171875 -8.128906 12.566406 -7.378906 11.984375 -6.734375 C 11.410156 -6.097656 10.921875 -5.59375 10.515625 -5.21875 C 10.753906 -5.050781 11.003906 -4.847656 11.265625 -4.609375 C 11.523438 -4.367188 11.78125 -4.0625 12.03125 -3.6875 C 12.28125 -3.320312 12.503906 -2.859375 12.703125 -2.296875 C 12.898438 -1.742188 13.050781 -1.066406 13.15625 -0.265625 C 14.613281 -1.304688 15.914062 -2.390625 17.0625 -3.515625 C 18.21875 -4.648438 19.257812 -5.851562 20.1875 -7.125 C 21.113281 -8.40625 21.953125 -9.773438 22.703125 -11.234375 C 23.453125 -12.691406 24.15625 -14.269531 24.8125 -15.96875 L 26.078125 -15.640625 C 25.296875 -13.640625 24.488281 -11.847656 23.65625 -10.265625 C 22.832031 -8.691406 21.925781 -7.242188 20.9375 -5.921875 C 19.945312 -4.609375 18.832031 -3.378906 17.59375 -2.234375 C 16.351562 -1.085938 14.925781 0.0546875 13.3125 1.203125 L 13.3125 2.21875 C 13.3125 5.09375 12.972656 7.59375 12.296875 9.71875 C 11.628906 11.851562 10.816406 13.628906 9.859375 15.046875 C 8.898438 16.460938 7.875 17.519531 6.78125 18.21875 C 5.695312 18.914062 4.753906 19.265625 3.953125 19.265625 C 2.640625 19.265625 1.617188 18.816406 0.890625 17.921875 C 0.160156 17.023438 -0.203125 15.835938 -0.203125 14.359375 C -0.203125 13.234375 0.0703125 12.101562 0.625 10.96875 C 1.1875 9.832031 1.945312 8.71875 2.90625 7.625 C 3.863281 6.539062 5 5.484375 6.3125 4.453125 C 7.632812 3.421875 9.054688 2.425781 10.578125 1.46875 C 10.578125 1.425781 10.585938 1.40625 10.609375 1.40625 C 10.628906 1.40625 10.660156 1.382812 10.703125 1.34375 C 10.703125 0.25 10.578125 -0.757812 10.328125 -1.6875 C 10.078125 -2.625 9.671875 -3.398438 9.109375 -4.015625 C 8.671875 -3.710938 8.273438 -3.5 7.921875 -3.375 C 7.578125 -3.257812 7.273438 -3.203125 7.015625 -3.203125 C 6.472656 -3.203125 6.082031 -3.332031 5.84375 -3.59375 C 5.601562 -3.851562 5.484375 -4.144531 5.484375 -4.46875 C 5.484375 -4.539062 5.5 -4.648438 5.53125 -4.796875 C 5.5625 -4.953125 5.65625 -5.109375 5.8125 -5.265625 C 5.96875 -5.429688 6.195312 -5.570312 6.5 -5.6875 C 6.800781 -5.8125 7.222656 -5.875 7.765625 -5.875 C 7.941406 -5.875 8.125 -5.863281 8.3125 -5.84375 C 8.5 -5.820312 8.6875 -5.789062 8.875 -5.75 C 10.070312 -6.96875 11.082031 -8.273438 11.90625 -9.671875 C 12.738281 -11.078125 13.414062 -12.429688 13.9375 -13.734375 C 14.457031 -15.046875 14.835938 -16.234375 15.078125 -17.296875 C 15.316406 -18.367188 15.457031 -19.195312 15.5 -19.78125 C 15.332031 -19.675781 15.109375 -19.59375 14.828125 -19.53125 C 14.554688 -19.476562 14.273438 -19.4375 13.984375 -19.40625 C 13.691406 -19.375 13.410156 -19.351562 13.140625 -19.34375 C 12.867188 -19.332031 12.65625 -19.328125 12.5 -19.328125 C 12.09375 -19.328125 11.59375 -19.335938 11 -19.359375 C 10.414062 -19.378906 9.828125 -19.390625 9.234375 -19.390625 C 8.648438 -19.390625 8.144531 -19.335938 7.71875 -19.234375 C 7.289062 -19.140625 6.9375 -19.015625 6.65625 -18.859375 C 6.375 -18.710938 6.148438 -18.5625 5.984375 -18.40625 C 5.828125 -18.257812 5.703125 -18.140625 5.609375 -18.046875 C 5.304688 -17.679688 5.066406 -17.320312 4.890625 -16.96875 C 4.722656 -16.625 4.539062 -16.179688 4.34375 -15.640625 Z M 3.140625 17.46875 C 3.878906 17.46875 4.65625 17.085938 5.46875 16.328125 C 6.28125 15.566406 7.046875 14.523438 7.765625 13.203125 C 8.484375 11.890625 9.109375 10.351562 9.640625 8.59375 C 10.179688 6.84375 10.515625 4.976562 10.640625 3 C 10.515625 3.0625 10.414062 3.128906 10.34375 3.203125 C 8.976562 4.085938 7.726562 4.992188 6.59375 5.921875 C 5.457031 6.847656 4.484375 7.78125 3.671875 8.71875 C 2.859375 9.65625 2.222656 10.59375 1.765625 11.53125 C 1.304688 12.476562 1.078125 13.421875 1.078125 14.359375 C 1.078125 14.640625 1.109375 14.957031 1.171875 15.3125 C 1.234375 15.675781 1.347656 16.015625 1.515625 16.328125 C 1.679688 16.648438 1.894531 16.921875 2.15625 17.140625 C 2.414062 17.359375 2.742188 17.46875 3.140625 17.46875 Z M 3.140625 17.46875 "/></g></g></g><g fill="#ffffff" fill-opacity="1"><g transform="translate(262.624341, 187.143017)"><g><path d="M 28.203125 -15.640625 C 27.316406 -13.222656 26.507812 -11.195312 25.78125 -9.5625 C 25.050781 -7.925781 24.34375 -6.609375 23.65625 -5.609375 C 22.96875 -4.609375 22.285156 -3.890625 21.609375 -3.453125 C 20.929688 -3.023438 20.191406 -2.8125 19.390625 -2.8125 C 18.410156 -2.8125 17.570312 -3.148438 16.875 -3.828125 C 16.175781 -4.515625 15.742188 -5.578125 15.578125 -7.015625 C 14.878906 -5.515625 13.972656 -4.289062 12.859375 -3.34375 C 11.753906 -2.394531 10.363281 -1.921875 8.6875 -1.921875 C 7.789062 -1.921875 6.929688 -2.082031 6.109375 -2.40625 C 5.296875 -2.738281 4.570312 -3.25 3.9375 -3.9375 C 3.3125 -4.625 2.804688 -5.488281 2.421875 -6.53125 C 2.046875 -7.570312 1.859375 -8.800781 1.859375 -10.21875 C 1.859375 -11.65625 2.035156 -13.003906 2.390625 -14.265625 C 2.753906 -15.523438 3.226562 -16.679688 3.8125 -17.734375 C 4.40625 -18.796875 5.085938 -19.738281 5.859375 -20.5625 C 6.628906 -21.394531 7.425781 -22.09375 8.25 -22.65625 C 9.082031 -23.21875 9.910156 -23.648438 10.734375 -23.953125 C 11.566406 -24.265625 12.332031 -24.421875 13.03125 -24.421875 C 13.632812 -24.421875 14.21875 -24.34375 14.78125 -24.1875 C 15.351562 -24.039062 15.859375 -23.796875 16.296875 -23.453125 C 16.742188 -23.117188 17.101562 -22.664062 17.375 -22.09375 C 17.65625 -21.53125 17.796875 -20.828125 17.796875 -19.984375 C 17.796875 -18.984375 17.601562 -18.109375 17.21875 -17.359375 C 16.84375 -16.617188 16.382812 -16 15.84375 -15.5 C 15.3125 -15 14.769531 -14.597656 14.21875 -14.296875 C 13.664062 -13.992188 13.222656 -13.773438 12.890625 -13.640625 L 12.5 -14.921875 C 12.5625 -14.921875 12.804688 -15.003906 13.234375 -15.171875 C 13.660156 -15.347656 14.109375 -15.640625 14.578125 -16.046875 C 15.046875 -16.453125 15.472656 -16.96875 15.859375 -17.59375 C 16.253906 -18.226562 16.453125 -19.003906 16.453125 -19.921875 C 16.453125 -20.960938 16.15625 -21.757812 15.5625 -22.3125 C 14.976562 -22.863281 14.226562 -23.140625 13.3125 -23.140625 C 12.625 -23.140625 11.8125 -22.890625 10.875 -22.390625 C 9.9375 -21.890625 9.035156 -21.101562 8.171875 -20.03125 C 7.316406 -18.96875 6.585938 -17.617188 5.984375 -15.984375 C 5.390625 -14.359375 5.09375 -12.414062 5.09375 -10.15625 C 5.09375 -7.914062 5.488281 -6.207031 6.28125 -5.03125 C 7.070312 -3.851562 8.144531 -3.265625 9.5 -3.265625 C 10.175781 -3.265625 10.820312 -3.453125 11.4375 -3.828125 C 12.0625 -4.210938 12.632812 -4.71875 13.15625 -5.34375 C 13.675781 -5.976562 14.144531 -6.710938 14.5625 -7.546875 C 14.976562 -8.390625 15.335938 -9.257812 15.640625 -10.15625 C 15.640625 -10.851562 15.71875 -11.671875 15.875 -12.609375 C 16.039062 -13.554688 16.300781 -14.519531 16.65625 -15.5 L 18.640625 -14.859375 C 18.535156 -14.566406 18.425781 -14.191406 18.3125 -13.734375 C 18.207031 -13.285156 18.101562 -12.785156 18 -12.234375 C 17.90625 -11.691406 17.820312 -11.132812 17.75 -10.5625 C 17.6875 -9.988281 17.65625 -9.425781 17.65625 -8.875 C 17.65625 -7.175781 17.820312 -6.003906 18.15625 -5.359375 C 18.5 -4.722656 19.085938 -4.40625 19.921875 -4.40625 C 20.390625 -4.40625 20.859375 -4.578125 21.328125 -4.921875 C 21.796875 -5.273438 22.300781 -5.882812 22.84375 -6.75 C 23.394531 -7.625 23.992188 -8.804688 24.640625 -10.296875 C 25.296875 -11.785156 26.0625 -13.675781 26.9375 -15.96875 Z M 28.203125 -15.640625 "/></g></g></g><g fill="#ffffff" fill-opacity="1"><g transform="translate(286.488712, 187.143017)"><g><path d="M 14.359375 -41.140625 C 14.359375 -39.765625 14.203125 -38.300781 13.890625 -36.75 C 13.578125 -35.207031 13.164062 -33.640625 12.65625 -32.046875 C 12.144531 -30.460938 11.554688 -28.863281 10.890625 -27.25 C 10.222656 -25.644531 9.550781 -24.101562 8.875 -22.625 C 8.207031 -21.144531 7.546875 -19.738281 6.890625 -18.40625 C 6.234375 -17.082031 5.65625 -15.898438 5.15625 -14.859375 C 5.238281 -13.066406 5.390625 -11.453125 5.609375 -10.015625 C 5.828125 -8.585938 6.097656 -7.363281 6.421875 -6.34375 C 6.753906 -5.332031 7.148438 -4.554688 7.609375 -4.015625 C 8.066406 -3.472656 8.585938 -3.203125 9.171875 -3.203125 C 9.828125 -3.203125 10.472656 -3.503906 11.109375 -4.109375 C 11.753906 -4.722656 12.398438 -5.582031 13.046875 -6.6875 C 13.703125 -7.800781 14.367188 -9.140625 15.046875 -10.703125 C 15.722656 -12.273438 16.410156 -14.03125 17.109375 -15.96875 L 18.375 -15.640625 C 17.851562 -14.140625 17.265625 -12.554688 16.609375 -10.890625 C 15.960938 -9.222656 15.234375 -7.691406 14.421875 -6.296875 C 13.617188 -4.910156 12.742188 -3.757812 11.796875 -2.84375 C 10.847656 -1.925781 9.832031 -1.46875 8.75 -1.46875 C 7.65625 -1.46875 6.738281 -1.804688 6 -2.484375 C 5.257812 -3.160156 4.648438 -4.046875 4.171875 -5.140625 C 3.691406 -6.242188 3.320312 -7.492188 3.0625 -8.890625 C 2.800781 -10.296875 2.601562 -11.726562 2.46875 -13.1875 C 2.34375 -14.644531 2.269531 -16.0625 2.25 -17.4375 C 2.226562 -18.820312 2.21875 -20.050781 2.21875 -21.125 C 2.21875 -23.101562 2.296875 -25.070312 2.453125 -27.03125 C 2.617188 -28.988281 2.867188 -30.859375 3.203125 -32.640625 C 3.546875 -34.429688 3.957031 -36.09375 4.4375 -37.625 C 4.914062 -39.15625 5.472656 -40.476562 6.109375 -41.59375 C 6.753906 -42.71875 7.460938 -43.597656 8.234375 -44.234375 C 9.015625 -44.867188 9.859375 -45.1875 10.765625 -45.1875 C 11.421875 -45.1875 11.976562 -45.078125 12.4375 -44.859375 C 12.894531 -44.640625 13.265625 -44.34375 13.546875 -43.96875 C 13.828125 -43.601562 14.03125 -43.175781 14.15625 -42.6875 C 14.289062 -42.195312 14.359375 -41.679688 14.359375 -41.140625 Z M 4.96875 -22.328125 C 4.96875 -21.503906 4.96875 -20.691406 4.96875 -19.890625 C 4.96875 -19.097656 4.988281 -18.332031 5.03125 -17.59375 C 5.570312 -18.6875 6.144531 -19.878906 6.75 -21.171875 C 7.363281 -22.460938 7.96875 -23.800781 8.5625 -25.1875 C 9.164062 -26.570312 9.738281 -27.96875 10.28125 -29.375 C 10.820312 -30.789062 11.300781 -32.175781 11.71875 -33.53125 C 12.132812 -34.894531 12.46875 -36.191406 12.71875 -37.421875 C 12.96875 -38.648438 13.09375 -39.769531 13.09375 -40.78125 C 13.09375 -41.101562 13.0625 -41.445312 13 -41.8125 C 12.945312 -42.1875 12.847656 -42.53125 12.703125 -42.84375 C 12.566406 -43.164062 12.367188 -43.425781 12.109375 -43.625 C 11.847656 -43.832031 11.507812 -43.9375 11.09375 -43.9375 C 10.269531 -43.9375 9.484375 -43.394531 8.734375 -42.3125 C 7.984375 -41.238281 7.328125 -39.742188 6.765625 -37.828125 C 6.210938 -35.921875 5.773438 -33.644531 5.453125 -31 C 5.128906 -28.351562 4.96875 -25.460938 4.96875 -22.328125 Z M 4.96875 -22.328125 "/></g></g></g><g fill="#ffffff" fill-opacity="1"><g transform="translate(300.526573, 187.143017)"><g><path d="M 28.203125 -15.640625 C 27.316406 -13.222656 26.507812 -11.195312 25.78125 -9.5625 C 25.050781 -7.925781 24.34375 -6.609375 23.65625 -5.609375 C 22.96875 -4.609375 22.285156 -3.890625 21.609375 -3.453125 C 20.929688 -3.023438 20.191406 -2.8125 19.390625 -2.8125 C 18.410156 -2.8125 17.570312 -3.148438 16.875 -3.828125 C 16.175781 -4.515625 15.742188 -5.578125 15.578125 -7.015625 C 14.878906 -5.515625 13.972656 -4.289062 12.859375 -3.34375 C 11.753906 -2.394531 10.363281 -1.921875 8.6875 -1.921875 C 7.789062 -1.921875 6.929688 -2.082031 6.109375 -2.40625 C 5.296875 -2.738281 4.570312 -3.25 3.9375 -3.9375 C 3.3125 -4.625 2.804688 -5.488281 2.421875 -6.53125 C 2.046875 -7.570312 1.859375 -8.800781 1.859375 -10.21875 C 1.859375 -11.65625 2.035156 -13.003906 2.390625 -14.265625 C 2.753906 -15.523438 3.226562 -16.679688 3.8125 -17.734375 C 4.40625 -18.796875 5.085938 -19.738281 5.859375 -20.5625 C 6.628906 -21.394531 7.425781 -22.09375 8.25 -22.65625 C 9.082031 -23.21875 9.910156 -23.648438 10.734375 -23.953125 C 11.566406 -24.265625 12.332031 -24.421875 13.03125 -24.421875 C 13.632812 -24.421875 14.21875 -24.34375 14.78125 -24.1875 C 15.351562 -24.039062 15.859375 -23.796875 16.296875 -23.453125 C 16.742188 -23.117188 17.101562 -22.664062 17.375 -22.09375 C 17.65625 -21.53125 17.796875 -20.828125 17.796875 -19.984375 C 17.796875 -18.984375 17.601562 -18.109375 17.21875 -17.359375 C 16.84375 -16.617188 16.382812 -16 15.84375 -15.5 C 15.3125 -15 14.769531 -14.597656 14.21875 -14.296875 C 13.664062 -13.992188 13.222656 -13.773438 12.890625 -13.640625 L 12.5 -14.921875 C 12.5625 -14.921875 12.804688 -15.003906 13.234375 -15.171875 C 13.660156 -15.347656 14.109375 -15.640625 14.578125 -16.046875 C 15.046875 -16.453125 15.472656 -16.96875 15.859375 -17.59375 C 16.253906 -18.226562 16.453125 -19.003906 16.453125 -19.921875 C 16.453125 -20.960938 16.15625 -21.757812 15.5625 -22.3125 C 14.976562 -22.863281 14.226562 -23.140625 13.3125 -23.140625 C 12.625 -23.140625 11.8125 -22.890625 10.875 -22.390625 C 9.9375 -21.890625 9.035156 -21.101562 8.171875 -20.03125 C 7.316406 -18.96875 6.585938 -17.617188 5.984375 -15.984375 C 5.390625 -14.359375 5.09375 -12.414062 5.09375 -10.15625 C 5.09375 -7.914062 5.488281 -6.207031 6.28125 -5.03125 C 7.070312 -3.851562 8.144531 -3.265625 9.5 -3.265625 C 10.175781 -3.265625 10.820312 -3.453125 11.4375 -3.828125 C 12.0625 -4.210938 12.632812 -4.71875 13.15625 -5.34375 C 13.675781 -5.976562 14.144531 -6.710938 14.5625 -7.546875 C 14.976562 -8.390625 15.335938 -9.257812 15.640625 -10.15625 C 15.640625 -10.851562 15.71875 -11.671875 15.875 -12.609375 C 16.039062 -13.554688 16.300781 -14.519531 16.65625 -15.5 L 18.640625 -14.859375 C 18.535156 -14.566406 18.425781 -14.191406 18.3125 -13.734375 C 18.207031 -13.285156 18.101562 -12.785156 18 -12.234375 C 17.90625 -11.691406 17.820312 -11.132812 17.75 -10.5625 C 17.6875 -9.988281 17.65625 -9.425781 17.65625 -8.875 C 17.65625 -7.175781 17.820312 -6.003906 18.15625 -5.359375 C 18.5 -4.722656 19.085938 -4.40625 19.921875 -4.40625 C 20.390625 -4.40625 20.859375 -4.578125 21.328125 -4.921875 C 21.796875 -5.273438 22.300781 -5.882812 22.84375 -6.75 C 23.394531 -7.625 23.992188 -8.804688 24.640625 -10.296875 C 25.296875 -11.785156 26.0625 -13.675781 26.9375 -15.96875 Z M 28.203125 -15.640625 "/></g></g></g><g fill="#000000" fill-opacity="1"><g transform="translate(167.406736, 227.534449)"><g/></g></g><g fill="#000000" fill-opacity="1"><g transform="translate(173.74504, 227.534449)"><g><path d="M 0.582031 -0.570312 C 1.785156 0.0507812 2.890625 0.113281 3.386719 0.0742188 C 5.046875 -0.0117188 6.066406 -1.140625 6.066406 -2.617188 C 6.066406 -4.03125 4.875 -4.824219 3.496094 -5.332031 C 2.988281 -5.507812 2.554688 -5.730469 2.503906 -6.226562 C 2.46875 -6.722656 2.753906 -7.179688 3.386719 -7.21875 C 3.660156 -7.230469 4.214844 -7.242188 5.195312 -6.847656 L 5.417969 -8.558594 C 4.277344 -8.953125 3.671875 -8.953125 3.210938 -8.929688 C 1.734375 -8.855469 0.707031 -7.714844 0.707031 -6.226562 C 0.707031 -4.738281 1.945312 -4.03125 3.335938 -3.523438 C 3.832031 -3.347656 4.214844 -3.125 4.253906 -2.617188 C 4.304688 -2.132812 3.855469 -1.761719 3.335938 -1.722656 C 2.925781 -1.6875 1.824219 -1.710938 0.804688 -2.429688 Z M 0.582031 -0.570312 "/></g></g></g><g fill="#000000" fill-opacity="1"><g transform="translate(183.108405, 227.534449)"><g><path d="M 2.765625 0 L 2.765625 -3.386719 L 4.476562 -3.386719 C 7.914062 -3.386719 7.925781 -8.855469 4.476562 -8.855469 L 0.992188 -8.855469 L 0.992188 0 Z M 2.765625 -5.109375 L 2.765625 -7.09375 L 4.328125 -7.09375 C 5.519531 -7.09375 5.519531 -5.109375 4.328125 -5.109375 Z M 2.765625 -5.109375 "/></g></g></g><g fill="#000000" fill-opacity="1"><g transform="translate(193.3894, 227.534449)"><g><path d="M 0.199219 0 L 2.207031 0 L 2.554688 -0.953125 L 5.496094 -0.953125 L 5.855469 0 L 7.851562 0 L 4.117188 -9.191406 L 3.929688 -9.191406 Z M 3.199219 -2.617188 L 4.03125 -4.921875 L 4.835938 -2.617188 Z M 3.199219 -2.617188 "/></g></g></g><g fill="#000000" fill-opacity="1"><g transform="translate(204.290407, 227.534449)"><g><path d="M 2.542969 -1.363281 L 0.707031 -1.363281 L 0.1875 1.4375 L 1.574219 1.4375 Z M 2.542969 -1.363281 "/></g></g></g><g fill="#000000" fill-opacity="1"><g transform="translate(210.070075, 227.534449)"><g/></g></g><g fill="#000000" fill-opacity="1"><g transform="translate(216.395351, 227.534449)"><g><path d="M 0.992188 0 L 4.503906 0 C 5.941406 0 7.117188 -1.179688 7.117188 -2.667969 C 7.117188 -3.359375 6.785156 -4.042969 6.199219 -4.441406 C 6.757812 -4.824219 6.996094 -5.519531 7.019531 -6.1875 C 7.058594 -7.75 6.078125 -8.878906 4.503906 -8.878906 L 0.992188 -8.878906 Z M 2.777344 -7.105469 L 4.351562 -7.105469 C 4.863281 -7.105469 5.171875 -6.710938 5.171875 -6.214844 C 5.171875 -5.730469 4.863281 -5.320312 4.351562 -5.320312 L 2.777344 -5.320312 Z M 2.777344 -3.546875 L 4.351562 -3.546875 C 4.863281 -3.546875 5.246094 -3.164062 5.246094 -2.667969 C 5.246094 -2.171875 4.863281 -1.773438 4.351562 -1.773438 L 2.777344 -1.773438 Z M 2.777344 -3.546875 "/></g></g></g><g fill="#000000" fill-opacity="1"><g transform="translate(226.899545, 227.534449)"><g><path d="M 5.582031 0 L 5.582031 -1.773438 L 2.765625 -1.773438 L 2.765625 -3.546875 L 5.097656 -3.546875 L 5.097656 -5.320312 L 2.765625 -5.320312 L 2.765625 -7.09375 L 5.433594 -7.09375 L 5.433594 -8.867188 L 0.992188 -8.867188 L 0.992188 0 Z M 5.582031 0 "/></g></g></g><g fill="#000000" fill-opacity="1"><g transform="translate(235.952896, 227.534449)"><g><path d="M 0.199219 0 L 2.207031 0 L 2.554688 -0.953125 L 5.496094 -0.953125 L 5.855469 0 L 7.851562 0 L 4.117188 -9.191406 L 3.929688 -9.191406 Z M 3.199219 -2.617188 L 4.03125 -4.921875 L 4.835938 -2.617188 Z M 3.199219 -2.617188 "/></g></g></g><g fill="#000000" fill-opacity="1"><g transform="translate(246.853905, 227.534449)"><g><path d="M 7.355469 -3.089844 L 7.355469 -8.867188 L 5.59375 -8.867188 L 5.59375 -3.101562 C 5.59375 -1.238281 2.714844 -1.238281 2.714844 -3.101562 L 2.714844 -8.867188 L 0.941406 -8.867188 L 0.941406 -3.089844 C 0.941406 1.128906 7.355469 1.128906 7.355469 -3.089844 Z M 7.355469 -3.089844 "/></g></g></g><g fill="#000000" fill-opacity="1"><g transform="translate(257.978128, 227.534449)"><g><path d="M 4.230469 0 L 4.230469 -7.09375 L 6.4375 -7.09375 L 6.4375 -8.855469 L 0.246094 -8.855469 L 0.246094 -7.09375 L 2.457031 -7.09375 L 2.457031 0 Z M 4.230469 0 "/></g></g></g><g fill="#000000" fill-opacity="1"><g transform="translate(267.564695, 227.534449)"><g><path d="M 3.164062 0 L 4.921875 0 L 4.921875 -3.992188 L 8.023438 -8.867188 L 5.855469 -8.867188 L 4.042969 -5.816406 L 2.230469 -8.867188 L 0.0742188 -8.867188 L 3.164062 -3.992188 Z M 3.164062 0 "/></g></g></g><g fill="#000000" fill-opacity="1"><g transform="translate(278.416101, 227.534449)"><g/></g></g><g fill="#000000" fill-opacity="1"><g transform="translate(284.74138, 227.534449)"><g><path d="M 2.765625 0 L 2.765625 -3.386719 L 4.476562 -3.386719 C 7.914062 -3.386719 7.925781 -8.855469 4.476562 -8.855469 L 0.992188 -8.855469 L 0.992188 0 Z M 2.765625 -5.109375 L 2.765625 -7.09375 L 4.328125 -7.09375 C 5.519531 -7.09375 5.519531 -5.109375 4.328125 -5.109375 Z M 2.765625 -5.109375 "/></g></g></g><g fill="#000000" fill-opacity="1"><g transform="translate(295.022377, 227.534449)"><g><path d="M 0.992188 -8.867188 L 0.992188 0 L 5.582031 0 L 5.582031 -1.773438 L 2.765625 -1.773438 L 2.765625 -8.867188 Z M 0.992188 -8.867188 "/></g></g></g><g fill="#000000" fill-opacity="1"><g transform="translate(303.939323, 227.534449)"><g><path d="M 0.199219 0 L 2.207031 0 L 2.554688 -0.953125 L 5.496094 -0.953125 L 5.855469 0 L 7.851562 0 L 4.117188 -9.191406 L 3.929688 -9.191406 Z M 3.199219 -2.617188 L 4.03125 -4.921875 L 4.835938 -2.617188 Z M 3.199219 -2.617188 "/></g></g></g><g fill="#000000" fill-opacity="1"><g transform="translate(314.840325, 227.534449)"><g><path d="M 6.636719 -6.808594 L 6.847656 -8.632812 C 6.3125 -8.867188 5.71875 -8.980469 5.097656 -8.980469 C -0.90625 -8.980469 -0.917969 0.0234375 5.097656 0.0234375 C 5.71875 0.0234375 6.5 -0.125 7.042969 -0.347656 L 6.808594 -2.183594 C 6.472656 -2.007812 5.867188 -1.785156 5.097656 -1.785156 C 1.585938 -1.785156 1.585938 -7.191406 5.097656 -7.191406 C 5.867188 -7.191406 6.300781 -6.980469 6.636719 -6.808594 Z M 6.636719 -6.808594 "/></g></g></g><g fill="#000000" fill-opacity="1"><g transform="translate(325.108907, 227.534449)"><g><path d="M 5.582031 0 L 5.582031 -1.773438 L 2.765625 -1.773438 L 2.765625 -3.546875 L 5.097656 -3.546875 L 5.097656 -5.320312 L 2.765625 -5.320312 L 2.765625 -7.09375 L 5.433594 -7.09375 L 5.433594 -8.867188 L 0.992188 -8.867188 L 0.992188 0 Z M 5.582031 0 "/></g></g></g><g fill="#000000" fill-opacity="1"><g transform="translate(334.162255, 227.534449)"><g/></g></g><g fill="#000000" fill-opacity="1"><g transform="translate(340.487527, 227.534449)"><g><path d="M 3.765625 -9 C 4.429688 -9 4.957031 -8.828125 5.34375 -8.484375 C 5.726562 -8.148438 5.921875 -7.679688 5.921875 -7.078125 C 5.921875 -6.554688 5.75 -6.113281 5.40625 -5.75 C 5.070312 -5.382812 4.648438 -5.054688 4.140625 -4.765625 L 6.53125 -2.453125 C 6.75 -2.710938 6.925781 -3.007812 7.0625 -3.34375 C 7.195312 -3.675781 7.3125 -4.035156 7.40625 -4.421875 L 8.515625 -4.421875 C 8.378906 -3.890625 8.210938 -3.394531 8.015625 -2.9375 C 7.816406 -2.488281 7.5625 -2.097656 7.25 -1.765625 L 9.0625 0 L 7.578125 0 L 6.5 -1.046875 C 6.113281 -0.691406 5.679688 -0.40625 5.203125 -0.1875 C 4.722656 0.0195312 4.140625 0.125 3.453125 0.125 C 2.585938 0.125 1.90625 -0.0820312 1.40625 -0.5 C 0.90625 -0.925781 0.65625 -1.53125 0.65625 -2.3125 C 0.65625 -2.9375 0.828125 -3.441406 1.171875 -3.828125 C 1.515625 -4.222656 1.976562 -4.582031 2.5625 -4.90625 C 2.300781 -5.207031 2.054688 -5.523438 1.828125 -5.859375 C 1.597656 -6.203125 1.484375 -6.601562 1.484375 -7.0625 C 1.484375 -7.664062 1.6875 -8.140625 2.09375 -8.484375 C 2.5 -8.828125 3.054688 -9 3.765625 -9 Z M 3.734375 -8.09375 C 3.390625 -8.09375 3.109375 -8.003906 2.890625 -7.828125 C 2.671875 -7.648438 2.5625 -7.398438 2.5625 -7.078125 C 2.5625 -6.773438 2.640625 -6.5 2.796875 -6.25 C 2.953125 -6 3.175781 -5.71875 3.46875 -5.40625 C 3.957031 -5.6875 4.304688 -5.953125 4.515625 -6.203125 C 4.734375 -6.453125 4.84375 -6.742188 4.84375 -7.078125 C 4.84375 -7.378906 4.742188 -7.625 4.546875 -7.8125 C 4.347656 -8 4.078125 -8.09375 3.734375 -8.09375 Z M 3.21875 -4.234375 C 2.78125 -3.960938 2.429688 -3.691406 2.171875 -3.421875 C 1.921875 -3.148438 1.796875 -2.789062 1.796875 -2.34375 C 1.796875 -1.882812 1.945312 -1.519531 2.25 -1.25 C 2.5625 -0.976562 2.972656 -0.84375 3.484375 -0.84375 C 4.015625 -0.84375 4.46875 -0.925781 4.84375 -1.09375 C 5.21875 -1.269531 5.539062 -1.476562 5.8125 -1.71875 Z M 3.21875 -4.234375 "/></g></g></g><g fill="#000000" fill-opacity="1"><g transform="translate(156.227479, 243.351135)"><g><path d="M 2.765625 0 L 2.765625 -3.386719 L 4.476562 -3.386719 C 7.914062 -3.386719 7.925781 -8.855469 4.476562 -8.855469 L 0.992188 -8.855469 L 0.992188 0 Z M 2.765625 -5.109375 L 2.765625 -7.09375 L 4.328125 -7.09375 C 5.519531 -7.09375 5.519531 -5.109375 4.328125 -5.109375 Z M 2.765625 -5.109375 "/></g></g></g><g fill="#000000" fill-opacity="1"><g transform="translate(166.508474, 243.351135)"><g><path d="M 5.257812 0.125 C 11.359375 0.125 11.359375 -9.015625 5.257812 -9.015625 C -0.84375 -9.015625 -0.84375 0.125 5.257812 0.125 Z M 5.257812 -1.710938 C 1.710938 -1.710938 1.710938 -7.191406 5.257812 -7.191406 C 8.804688 -7.191406 8.804688 -1.710938 5.257812 -1.710938 Z M 5.257812 -1.710938 "/></g></g></g><g fill="#000000" fill-opacity="1"><g transform="translate(179.81515, 243.351135)"><g><path d="M 0.582031 -0.570312 C 1.785156 0.0507812 2.890625 0.113281 3.386719 0.0742188 C 5.046875 -0.0117188 6.066406 -1.140625 6.066406 -2.617188 C 6.066406 -4.03125 4.875 -4.824219 3.496094 -5.332031 C 2.988281 -5.507812 2.554688 -5.730469 2.503906 -6.226562 C 2.46875 -6.722656 2.753906 -7.179688 3.386719 -7.21875 C 3.660156 -7.230469 4.214844 -7.242188 5.195312 -6.847656 L 5.417969 -8.558594 C 4.277344 -8.953125 3.671875 -8.953125 3.210938 -8.929688 C 1.734375 -8.855469 0.707031 -7.714844 0.707031 -6.226562 C 0.707031 -4.738281 1.945312 -4.03125 3.335938 -3.523438 C 3.832031 -3.347656 4.214844 -3.125 4.253906 -2.617188 C 4.304688 -2.132812 3.855469 -1.761719 3.335938 -1.722656 C 2.925781 -1.6875 1.824219 -1.710938 0.804688 -2.429688 Z M 0.582031 -0.570312 "/></g></g></g><g fill="#000000" fill-opacity="1"><g transform="translate(189.178515, 243.351135)"><g><path d="M 4.230469 0 L 4.230469 -7.09375 L 6.4375 -7.09375 L 6.4375 -8.855469 L 0.246094 -8.855469 L 0.246094 -7.09375 L 2.457031 -7.09375 L 2.457031 0 Z M 4.230469 0 "/></g></g></g><g fill="#000000" fill-opacity="1"><g transform="translate(198.765079, 243.351135)"><g><path d="M 2.765625 0 L 2.765625 -3.386719 L 4.476562 -3.386719 C 7.914062 -3.386719 7.925781 -8.855469 4.476562 -8.855469 L 0.992188 -8.855469 L 0.992188 0 Z M 2.765625 -5.109375 L 2.765625 -7.09375 L 4.328125 -7.09375 C 5.519531 -7.09375 5.519531 -5.109375 4.328125 -5.109375 Z M 2.765625 -5.109375 "/></g></g></g><g fill="#000000" fill-opacity="1"><g transform="translate(209.046073, 243.351135)"><g><path d="M 0.199219 0 L 2.207031 0 L 2.554688 -0.953125 L 5.496094 -0.953125 L 5.855469 0 L 7.851562 0 L 4.117188 -9.191406 L 3.929688 -9.191406 Z M 3.199219 -2.617188 L 4.03125 -4.921875 L 4.835938 -2.617188 Z M 3.199219 -2.617188 "/></g></g></g><g fill="#000000" fill-opacity="1"><g transform="translate(219.947082, 243.351135)"><g><path d="M 5.40625 0 L 7.417969 0 L 5.359375 -3.660156 C 7.960938 -4.414062 7.652344 -8.867188 4.488281 -8.867188 L 0.992188 -8.867188 L 0.992188 0 L 2.765625 0 L 2.765625 -3.386719 L 3.621094 -3.386719 Z M 2.765625 -5.109375 L 2.765625 -7.09375 L 4.328125 -7.09375 C 5.53125 -7.09375 5.53125 -5.109375 4.328125 -5.109375 Z M 2.765625 -5.109375 "/></g></g></g><g fill="#000000" fill-opacity="1"><g transform="translate(230.352073, 243.351135)"><g><path d="M 4.230469 0 L 4.230469 -7.09375 L 6.4375 -7.09375 L 6.4375 -8.855469 L 0.246094 -8.855469 L 0.246094 -7.09375 L 2.457031 -7.09375 L 2.457031 0 Z M 4.230469 0 "/></g></g></g><g fill="#000000" fill-opacity="1"><g transform="translate(239.93864, 243.351135)"><g><path d="M 7.355469 -3.089844 L 7.355469 -8.867188 L 5.59375 -8.867188 L 5.59375 -3.101562 C 5.59375 -1.238281 2.714844 -1.238281 2.714844 -3.101562 L 2.714844 -8.867188 L 0.941406 -8.867188 L 0.941406 -3.089844 C 0.941406 1.128906 7.355469 1.128906 7.355469 -3.089844 Z M 7.355469 -3.089844 "/></g></g></g><g fill="#000000" fill-opacity="1"><g transform="translate(251.062864, 243.351135)"><g><path d="M 5.058594 -5.109375 L 1.5625 -9.003906 L 0.992188 -9.003906 L 0.992188 0 L 2.789062 0 L 2.789062 -4.949219 L 5.058594 -2.566406 L 7.328125 -4.949219 L 7.316406 0 L 9.117188 0 L 9.117188 -9.003906 L 8.558594 -9.003906 Z M 5.058594 -5.109375 "/></g></g></g><g fill="#000000" fill-opacity="1"><g transform="translate(263.985138, 243.351135)"><g/></g></g><g fill="#000000" fill-opacity="1"><g transform="translate(270.310417, 243.351135)"><g><path d="M 7.191406 0 L 7.191406 -8.867188 L 5.417969 -8.867188 L 5.417969 -5.320312 L 2.765625 -5.320312 L 2.765625 -8.867188 L 0.992188 -8.867188 L 0.992188 0 L 2.765625 0 L 2.765625 -3.546875 L 5.417969 -3.546875 L 5.417969 0 Z M 7.191406 0 "/></g></g></g><g fill="#000000" fill-opacity="1"><g transform="translate(281.310632, 243.351135)"><g><path d="M 5.257812 0.125 C 11.359375 0.125 11.359375 -9.015625 5.257812 -9.015625 C -0.84375 -9.015625 -0.84375 0.125 5.257812 0.125 Z M 5.257812 -1.710938 C 1.710938 -1.710938 1.710938 -7.191406 5.257812 -7.191406 C 8.804688 -7.191406 8.804688 -1.710938 5.257812 -1.710938 Z M 5.257812 -1.710938 "/></g></g></g><g fill="#000000" fill-opacity="1"><g transform="translate(294.617303, 243.351135)"><g><path d="M 5.058594 -5.109375 L 1.5625 -9.003906 L 0.992188 -9.003906 L 0.992188 0 L 2.789062 0 L 2.789062 -4.949219 L 5.058594 -2.566406 L 7.328125 -4.949219 L 7.316406 0 L 9.117188 0 L 9.117188 -9.003906 L 8.558594 -9.003906 Z M 5.058594 -5.109375 "/></g></g></g><g fill="#000000" fill-opacity="1"><g transform="translate(307.539571, 243.351135)"><g><path d="M 5.582031 0 L 5.582031 -1.773438 L 2.765625 -1.773438 L 2.765625 -3.546875 L 5.097656 -3.546875 L 5.097656 -5.320312 L 2.765625 -5.320312 L 2.765625 -7.09375 L 5.433594 -7.09375 L 5.433594 -8.867188 L 0.992188 -8.867188 L 0.992188 0 Z M 5.582031 0 "/></g></g></g><g fill="#000000" fill-opacity="1"><g transform="translate(316.592918, 243.351135)"><g/></g></g><g fill="#000000" fill-opacity="1"><g transform="translate(322.91819, 243.351135)"><g><path d="M 6.636719 -6.808594 L 6.847656 -8.632812 C 6.3125 -8.867188 5.71875 -8.980469 5.097656 -8.980469 C -0.90625 -8.980469 -0.917969 0.0234375 5.097656 0.0234375 C 5.71875 0.0234375 6.5 -0.125 7.042969 -0.347656 L 6.808594 -2.183594 C 6.472656 -2.007812 5.867188 -1.785156 5.097656 -1.785156 C 1.585938 -1.785156 1.585938 -7.191406 5.097656 -7.191406 C 5.867188 -7.191406 6.300781 -6.980469 6.636719 -6.808594 Z M 6.636719 -6.808594 "/></g></g></g><g fill="#000000" fill-opacity="1"><g transform="translate(333.186773, 243.351135)"><g><path d="M 0.199219 0 L 2.207031 0 L 2.554688 -0.953125 L 5.496094 -0.953125 L 5.855469 0 L 7.851562 0 L 4.117188 -9.191406 L 3.929688 -9.191406 Z M 3.199219 -2.617188 L 4.03125 -4.921875 L 4.835938 -2.617188 Z M 3.199219 -2.617188 "/></g></g></g><g fill="#000000" fill-opacity="1"><g transform="translate(344.087774, 243.351135)"><g><path d="M 5.40625 0 L 7.417969 0 L 5.359375 -3.660156 C 7.960938 -4.414062 7.652344 -8.867188 4.488281 -8.867188 L 0.992188 -8.867188 L 0.992188 0 L 2.765625 0 L 2.765625 -3.386719 L 3.621094 -3.386719 Z M 2.765625 -5.109375 L 2.765625 -7.09375 L 4.328125 -7.09375 C 5.53125 -7.09375 5.53125 -5.109375 4.328125 -5.109375 Z M 2.765625 -5.109375 "/></g></g></g><g fill="#000000" fill-opacity="1"><g transform="translate(354.492759, 243.351135)"><g><path d="M 5.582031 0 L 5.582031 -1.773438 L 2.765625 -1.773438 L 2.765625 -3.546875 L 5.097656 -3.546875 L 5.097656 -5.320312 L 2.765625 -5.320312 L 2.765625 -7.09375 L 5.433594 -7.09375 L 5.433594 -8.867188 L 0.992188 -8.867188 L 0.992188 0 Z M 5.582031 0 "/></g></g></g></svg>